<svg xmlns="http://www.w3.org/2000/svg" viewBox="0 0 343.99 350"><defs><style>.a{fill:#ff3d00;}.b{fill:#e00000;}.c{fill:#fff;}.d{fill:#e09b00;}.e{fill:#fcde00;}</style></defs><polygon class="a" points="272.9 236.53 337.56 222.98 274.99 192.99 343.99 162.82 296.4 143.86 340.23 115.49 303.39 108.02 323.25 53.2 258.07 66.06 260.5 4.41 206.37 39.43 170.38 0 156.29 38.36 104.17 6.66 95.93 62.91 47.91 32.43 68.53 85.44 21.27 73.35 40.45 118.57 0 132.74 27.2 164.7 6.64 185.69 31.02 188.36 3.04 226.9 66.54 228.1 32.22 275.02 95.16 278.14 63.97 317.7 118.31 308.42 120.21 344.29 157.34 320.85 173.58 350 198.35 322.01 247.4 347.7 245.95 309.54 295.74 315.65 258.45 274.83 317.42 273.27 272.9 236.53"/><polygon class="b" points="259.96 231.22 303.4 221.68 256.65 192.94 307.26 164.51 281.63 145.32 317.02 117.25 291.47 113.2 296.37 69.99 249.94 78.69 244.04 33.75 203.86 63.52 176.03 18.63 160.73 62.67 115.88 29.62 116.09 88.86 68.36 55.05 93.4 104.94 41.34 87.15 64.99 129.77 24.36 139.43 56.55 161.91 23.54 179.47 57.96 180.72 30.09 216.02 87.61 214.92 53.47 264.31 107.58 271.53 85.55 305.7 123 296.17 128.86 326.79 156.71 305.28 172.24 328.19 199.46 312.62 232.71 323.56 230.14 296.17 268.1 297.53 236.26 264.34 285.38 266.28 259.96 231.22"/><path class="c" d="M225.33,251.78c-.45-2.3-.8-4.57-1.09-6.8v0c-.09.71,0,1.56-.71,1.81-1,.39-2.2-1.11-3.1-1a.5.5,0,0,0-.13,0c.18,1.41.38,2.79.61,4.14.11.67.24,1.32.37,2Zm-17.37.36c0-1.08.07-2.18.11-3.42,0-.17,0-.34,0-.52a8.35,8.35,0,0,1-2.54-.85,17.52,17.52,0,0,1-2.57-1.73,3.18,3.18,0,0,1-.41-.41q-.17,3.54-.39,6.86l3.21.05Zm-39.42,48.24c-.56.62-1.13,1.24-1.71,1.84s-1.39,1.41-2.11,2.09c.77.47,1.55.92,2.34,1.33s1.6.78,2.42,1.13,1.65.67,2.49,1l.82.27.71-.77c1-1.09,1.95-2.25,2.88-3.46s1.53-2.29,2.19-3.43C177.08,298.9,172.25,299.78,168.54,300.38Zm49.61-48.32c-.19-1.26-.35-2.48-.47-3.66-1.26.65-3.49.39-4.69,0a4.09,4.09,0,0,1-1-.51c-.05,1.59-.08,2.94-.12,4.23,2,0,4,0,5.87-.07Zm14.36,50.54a3.31,3.31,0,0,1-1.85,1.66c.51.95,1.05,1.9,1.64,2.86q1.29,1.89,2.69,3.62l.12.15,2.12-.68c.72-.24,1.42-.49,2.13-.75a102.81,102.81,0,0,1-5.78-9.36A18.21,18.21,0,0,1,232.51,302.6Zm15.3-2.56c-.55-.61-1.09-1.25-1.61-1.9s-1-1.29-1.49-2a3.46,3.46,0,0,1-.43,1.36c-1,1.63-4,1.06-6.35.83.49.85,1,1.65,1.42,2.4,1.91,3.15,3.49,5.44,4.52,6.86l.59-.26c.78-.36,1.56-.75,2.32-1.16s1.53-.84,2.28-1.3,1.49-1,2.22-1.46c-.61-.52-1.2-1.07-1.78-1.64S248.36,300.65,247.81,300Zm-21.07,4.1,0-.08a50.35,50.35,0,0,1-5.08-1.35c.47,1.74,1,3.41,1.47,5a38,38,0,0,0,1.8,3.95c.32.57.64,1.11,1,1.64l1-.2c.91-.2,1.81-.41,2.69-.63l1.06-.28c-.59-1-1.17-2.07-1.73-3.17C228.06,307.32,227.34,305.69,226.74,304.14Zm-7.93.42c-.27-1.05-.5-2.08-.72-3.11-1-.4-2-.81-3-1.23,0,1.62.21,3.53-.82,4.85a67.74,67.74,0,0,1-6.94-4.65c-.73-.62-1.46-2-2.41-2.16-.64-.13-.76.6-1.38.63-2.65.15-4.25-1.61-6.35-2.29a1.79,1.79,0,0,0-1.51.09c-.18.66-.36,1.31-.54,1.92a.58.58,0,0,1-.56.43h0c-1.83-.13-3.66-.33-5.47-.58a.6.6,0,0,1-.43-.29.61.61,0,0,1,0-.51c.33-.84.65-1.69.95-2.55a8.21,8.21,0,0,0-1.74,1.79,11,11,0,0,1-5.53,3.76l-.2.45c-.68,1.51-1.5,3.1-2.4,4.71-.72,1.22-1.45,2.37-2.18,3.49l2.25.54,2.32.53a54.36,54.36,0,0,0,3.87-6.68.58.58,0,0,1,.62-.31c2,.32,4,.55,6,.73a.61.61,0,0,1,.45.27.57.57,0,0,1,.05.52,48.67,48.67,0,0,1-3.32,7.24l1,.21c1,.21,1.9.41,2.87.6s1.76.34,2.65.49c.17-.34.33-.67.48-1a36.52,36.52,0,0,0,1.54-3.91c1.35-3.9,2.57-5.95,3.61-5.74s1.41,2.34.87,6.55a34.09,34.09,0,0,1-1.05,4.37c0,.15-.1.31-.15.46.37,0,.73.09,1.1.12,1,.1,2.08.18,3.13.24s2.11.11,3.17.13,2.11,0,3.16,0,2.07,0,3.1-.08,2-.12,3-.21,2-.19,3-.32l.37-.06c-.39-1-.79-2-1.17-3.17C219.87,308.85,219.33,306.73,218.81,304.56ZM198.07,252c.15-1.7.29-3.37.41-5h0a2.89,2.89,0,0,1-2.46-1c-.43-.35-1.69-1.19-2.62-2.07-.21,2.06-.47,4.15-.81,6.28-.09.56-.2,1.12-.3,1.68l1.19,0,3.89.06Zm1.29,10.19a10.35,10.35,0,0,0-3.4,5.38,6.87,6.87,0,0,0-.11,1.31l2.34.08,2.54.09a16.33,16.33,0,0,1,.49-2.1c.4-1.38,1.11-2.09,1.92-2s1.52.75,2.07,2c.17.68.37,1.47.56,2.28l4.54.08H212c1.51,0,3,0,4.47-.05a11,11,0,0,1,.24-1.33c.24-1.09.76-1.67,1.38-1.68s1.2.51,1.68,1.48c.13.42.28.9.43,1.4.73,0,1.46-.05,2.18-.09,3.92-.21,7.71-.56,11.33-1l1.32-.19a10.45,10.45,0,0,1,.66-1.45c.41-.75,1.91-2.34,1.78-3.17a24.51,24.51,0,0,1-3.37-.51,37.43,37.43,0,0,0-4.1-.24c.45-.71,1.64-1.17,2.35-1.63,1-.65,3.16-1.15,3.72-2.18-1.2-1.23-3.25-1.33-4.81-2.12l-1.92.18-.94.08c-.39,3.06-3.4,3.29-6.36,4a58.89,58.89,0,0,1-12.54,1.57c1.3-1.88,3.43-3.13,4.62-4.95-1.51,0-3,0-4.56,0-1.75,0-3.47,0-5.17-.07h-.84A22.64,22.64,0,0,1,199.36,262.2ZM176.84,264c.81.76,1.7,1.44,2.53,2.19l0,0c.61-.15,1.27-.26,1.85-.4,2.23-.57,3.56-1.92,5.52-2.94,2.65-1.37,5.33-2.51,8-3.59,1.32-.53,2.71-1.38,4.15-2-3.19-.07-6.32-.13-9.36-.23-3.21-.09-6.31-.26-9.26-.45l-1.31-.1a10.9,10.9,0,0,0,1.86,2.3c.6.47,1.34.85,1.62,1.59-2.49,1-5.33.68-7.78,1.45A14.76,14.76,0,0,0,176.84,264ZM293.65,131.42a26.48,26.48,0,0,0-7.83-8.67,28.46,28.46,0,0,0-10.68-4.62,37.44,37.44,0,0,0-13-.27c-1,.15-2.07.33-3.1.52a50.33,50.33,0,0,0-.78-8.42,28.31,28.31,0,0,0-2.69-8.12,22.32,22.32,0,0,0-5.09-5.9,32,32,0,0,0-10.44-5.44,41.76,41.76,0,0,0-12.51-1.9,22.93,22.93,0,0,0-8.22,1.63,29.19,29.19,0,0,0-8.48,5.38,51.64,51.64,0,0,0-6.59,7.11c-.79,1-1.54,1.94-2.23,2.93a41.37,41.37,0,0,0-8.8-6.48,32.45,32.45,0,0,0-12-3.85,28.25,28.25,0,0,0-11.84,2.06,24.85,24.85,0,0,0-5,2.75,27.66,27.66,0,0,0-4.34,4c-1.59,1.76-3.5,4-5.61,6.49A69.43,69.43,0,0,0,149,118a23.93,23.93,0,0,0-1.21,2.44,54.58,54.58,0,0,0-8.83-3.23,13,13,0,0,0-5.7-.22,11.47,11.47,0,0,0-5.54,3.18,20.87,20.87,0,0,0-6.26,15.38,10.47,10.47,0,0,0,.39,2.41l-1-.21a11.61,11.61,0,0,0-4.94,0,11.35,11.35,0,0,0-4.59,2.3,25.17,25.17,0,0,0-2.78,2.45,8.35,8.35,0,0,1,1.28,2.18,30.45,30.45,0,0,1,2.54,10.73,28.7,28.7,0,0,1,5.89,1.69,14.24,14.24,0,0,1,1.35.69l-.07-.25a1.57,1.57,0,0,1,.29-1.51,2.17,2.17,0,0,1,1.53-.64,1.6,1.6,0,0,1,1.44.64,3.23,3.23,0,0,1,.46,1.8c0,.39,0,.77,0,1.11a4.59,4.59,0,0,1-.08.89,1.34,1.34,0,0,1-.12.3,14.82,14.82,0,0,0,6.11,3.12c1.23-3.89,2.3-8.69,7.06-6.73a92.14,92.14,0,0,1,10.7,5.57c1.67,1,7.72,5.51,9.54,4.8s1.33-4.2,3-5.07c1.92-1,5.49,1.34,7.36,2a68.18,68.18,0,0,1,9.59,3.76c1.38.72,4.48,3.08,6.05,3,2.87-.15,4-4.61,5.37-7a48.07,48.07,0,0,1,4.65-7.28c2-2.4,1.85-2.91,4.38-.55,3.48,3.25,5.31,5.62,9.51,8.16,4.33-3.84,8.74-7.82,13-11.56,5.62-4.89,5.06,2,8.6,5.48,2.8-2,5.29-4.64,8.07-6.53s1.43-2.52,4.32.43c.86.88,2.49,3.28,3.61,3.7,2.25.84,5.54-1.58,7.68-2.37,3.56-1.3,6.26-.15,8.71,1.8a18.82,18.82,0,0,1,1-2.18c.88-1.56,2.08-4.48,3.46-5.62,2.24,1.69,2.2,9.16,2.58,11.57.16,1,.34,2,.52,3.07l.35.24a4.38,4.38,0,0,0,1,.49,15.35,15.35,0,0,1,.35-5.29c1.33.75,2.07,2.65,2.75,4.32,1.43-1.5,2.57-4.13,4.12-5.71,1.83-1.88,5.3-5.55,8.07-6.79-.11-.32-.21-.68-.32-1.05a3.13,3.13,0,0,1-.08-1.85,1.6,1.6,0,0,1,1.19-1,2.25,2.25,0,0,1,1.65.17,1.57,1.57,0,0,1,.71,1.37,4.93,4.93,0,0,1,0,1.14,5.19,5.19,0,0,1-.24.94c2.13.46,4.2,2.26,5.78,3.71.38.36.75.71,1.1,1.06a24.6,24.6,0,0,0,2.31-9.67A23.7,23.7,0,0,0,293.65,131.42Zm-138.7,6a32.12,32.12,0,0,0-3.63,3.83,30.67,30.67,0,0,0-4.58,7.43c-.17.41-.24.62-.24.62a.8.8,0,0,1-.71.52h-.12a.7.7,0,0,1-.63-.69,23.08,23.08,0,0,1,.89-6.46,9.75,9.75,0,0,0-1.91-.06,22.75,22.75,0,0,0-2.88,1.19c-3.09,1.26-6.92,2.64-10.33,1.75l-4-2.64c-1.16-.63-1.13-3.92-1.33-5.25a10.6,10.6,0,0,1,.28-4.95c1-3.15,4.84-8.58,8.15-9.42.21,1.56,0,3.14.29,4.71.09.47.41,2.85.76,3.18,1.42,1.31,4-2.17,6-1.3,1.8.8,2.68,4.33,4.54,5.68a5.78,5.78,0,0,1,2.4,2.55q.41-.65.84-1.26a25.43,25.43,0,0,1,4.68-4.79c.48-.4,1-.79,1.48-1.17a4.88,4.88,0,0,0-1.3-3.07c-.93-.91-2.35-1-2.84-2.25-1.16-3,1.17-7.18,2.6-9.69,3.33-5.82,8.44-11.39,15.13-12.92.17,1.93-2.84,4.29-3.54,6.23a30.13,30.13,0,0,0-1.36,4.3c-.85,4.31,3.25.57,5.25.78.11,1.8-.25,3.91.13,5.6,2.34.33,4-1,5.77-2.39.35,1-.17,3.3-.79,5.19l.34,0c2.47-.37,4-.45,4-.45a.79.79,0,0,1,.44.11c1.61,1.13,2.09,2.2,2,3.1a3.1,3.1,0,0,1-1.52,2.15,1.13,1.13,0,0,1-.64.16,27.5,27.5,0,0,0-9.4,1l-.19.07a36.79,36.79,0,0,0-8.17,3.92A49.88,49.88,0,0,0,155,137.39Zm30.47,17.43c-.41,2.56-1.32,7.73-4.59,6.88a20.38,20.38,0,0,1-8.15-4.67L164,152.12c3.33-1.27,7.06-2,10.52-3a33.15,33.15,0,0,1,6.88-1.5c.67-.05,3.88-.46,4.45,0C187.09,148.52,185.66,153.35,185.42,154.82Zm3.26-29a1.92,1.92,0,0,1-.11.63c-.13.34-.51.49-1.07.37a3.11,3.11,0,0,1-1.6-.93,3.81,3.81,0,0,1-.57-.73,3.12,3.12,0,0,1-.32-.75.78.78,0,0,1,.37-1,2.86,2.86,0,0,1,1.56-.28,2.17,2.17,0,0,1,1.42.59,1.78,1.78,0,0,1,.37,1.28C188.72,125.28,188.71,125.54,188.68,125.78Zm18.32,29c-2.42.12-3.42-1.83-5.08-3.26l-.19-5.66c2.15,0,7.66-1.14,8.07,1.15C210.11,148.8,208,153.51,207,154.82Zm-.56-46.27c1.23-3.84,4.89-8.07,8.24-10.27,3.2-2.1,7.87-4.88,11.92-4.4-2.7.73-5.16,3.93-5.54,6.53,2.92.18,5.13.08,7.86,1.2-4.65,2.41-8.9,6-13.44,8.8-2.7,1.66-5.39,4.48-5.26,8Zm5.38,10.8c1.6-.25,3.56-3.71,5.19-4.62,1.89-1.07,5-2.66,7.35-2.56.26,3.12-2.63,6.93-3.89,9.61a34.11,34.11,0,0,1-2.26,4ZM229.41,153c-.87-.33-1.83-4-2.31-4.81L237,144.5C235.9,146,231.31,153.72,229.41,153ZM243,149.14h6.38C246.72,150.75,244.69,153.7,243,149.14ZM270,126c-2,.18-3.93,1.29-5.93,1.34.06,1.94,2.93,3.05,3.51,5-1.74.32-4-.22-5.83,0-.28,1.71,2.12,4.67,3.07,6.09-3.29.13-6.64.09-9.9.21a.72.72,0,0,1,.16.44v.23c0,2.45-.72,3.91-1.63,4.7a3.31,3.31,0,0,1-2.11.84h-.06a.77.77,0,0,1-.6-.33,32.41,32.41,0,0,0-5.39-6.12,25.9,25.9,0,0,0-6.09-3.8,20.46,20.46,0,0,0-10.59-1.13l-.36.07a26.1,26.1,0,0,0-7.95,3.35,5.25,5.25,0,0,0-.5.36.76.76,0,0,1-1,0,.74.74,0,0,1,0-1,19.9,19.9,0,0,1,4.88-5,21.9,21.9,0,0,1,6-2.78,14.16,14.16,0,0,1,2.31-.41,19.58,19.58,0,0,1,8.71,1.24,19.3,19.3,0,0,0,.57-4.92,20.83,20.83,0,0,0-1.66-8.17,15.27,15.27,0,0,1,3.75,5.36c3.25-.17,7.58,2.39,9.11,5,1.51-1.12,1.61-3.19,3.55-4.09a18,18,0,0,1,5.34-1.32c6.06-.55,10.94.48,16,3.85C275,125.1,272.42,125.77,270,126Zm5.22,26.19a5.37,5.37,0,0,1-.3,1.13,2.31,2.31,0,0,1-1.27,1.4.92.92,0,0,1-1.2-.42,3.78,3.78,0,0,1-.33-.83c-.11-.32-.23-.69-.33-1.07a3.13,3.13,0,0,1-.08-1.85,1.59,1.59,0,0,1,1.19-1,2.21,2.21,0,0,1,1.65.17,1.58,1.58,0,0,1,.71,1.36A4.89,4.89,0,0,1,275.23,152.16Zm4.28-17.85a6.34,6.34,0,0,1-.38,1.42,3,3,0,0,1-1.6,1.78A1.18,1.18,0,0,1,276,137a5.12,5.12,0,0,1-.41-1c-.14-.41-.28-.87-.41-1.36a4,4,0,0,1-.11-2.34,2,2,0,0,1,1.5-1.3,2.79,2.79,0,0,1,2.09.21,2,2,0,0,1,.9,1.73A6.43,6.43,0,0,1,279.51,134.31Z" transform="translate(-28 -25)"/><path class="d" d="M172.91,239.61l-.51,1.56c3.21-1,6.89-1.09,10.14-1.4,2.34-.23,5.12.2,6.28-2,.8-1.55-.22-5.14-.74-6.63-7.05-1.12-15.66,1.75-22.56,3.24-5.43,1.17-11,3.08-15.51,6.42l-.13.2-1.54.09-1.5,4.78-3.58,5.73a10.63,10.63,0,0,0,4,8.28l2.22,3.21.51-1.7.81-2.68,1.19-3.95.32-1.07.47.28L157,256.5l2.59-5.76.33-.72.6.55,4.6,4.19.67-2.59,1.25-4.8-.08-.7-.2-1.81a2.75,2.75,0,0,1,.19-.28,11,11,0,0,1,5-3.26c-.79-.08-1-.3-1.11-1,0-.09,0-.19,0-.3a4.59,4.59,0,0,1,.75-2.48c.22-.49.35-1.08.53-1.62a4.34,4.34,0,0,1,.27-.66,2.49,2.49,0,0,1,2.36-1.17l-.48,1.49Zm-15.51,8.51a5,5,0,0,0-.25.7,16.86,16.86,0,0,0-.41,1.87c0,.1-.08.47-.16.88-.13.61-.3,1.31-.46,1.35s-.59-.19-1.07-.58a14.93,14.93,0,0,1-2-2,1.71,1.71,0,0,1-.35-.59l1.55-4.29c1.38,0,2.79-.08,4.16,0C158.11,246.36,157.77,247.25,157.4,248.12Zm7.71-3.94-.17,2.34-.15,2.15,0,.34-.18-.1a8,8,0,0,0-.89-.43,4.41,4.41,0,0,1-2-1.18,2.8,2.8,0,0,1-.46-1.77c0-2.66,1.42-4.24,4.1-4.28Zm81.75-12.52-2-.44a6.28,6.28,0,0,1,.84,3,24.2,24.2,0,0,1,0,3.3c-.09,1.24-.23,2.3-.3,2.78a11.09,11.09,0,0,1-2.31.09l-1-.74c0-.55,0-1.59,0-2.79s.1-2.27.24-3.34a6.44,6.44,0,0,1,.78-2.69c-4.92-1.08-10-2.15-14.74-2.2L225.93,232c-1.15,11,12.65,6.9,19.08,9.53a11.17,11.17,0,0,1,3.83,2.4c.59.53,1.62,2.73,2.31,2.94a1.18,1.18,0,0,0,.86,0c.06-.11.13-.21.19-.34a4.36,4.36,0,0,0,0-2.06c.48,0,1,0,1.45,0a3.57,3.57,0,0,1,1.42.13c.29.14.42.45.81,1.12l.19.33a6.47,6.47,0,0,0,1.75,2.18c.87.48,1.41-.42,2.24-1a14.26,14.26,0,0,0,1.16-.89,6.87,6.87,0,0,0,1.31-1.38c.07-.1.16-.22.26-.34.29-.35.65-.76.91-1.14a5.85,5.85,0,0,1,2.94,3h.44C267.76,236.34,254.5,233.26,246.86,231.66Zm-8.41,7.21a28.53,28.53,0,0,1-3.67-.25l-.15-.74a7.67,7.67,0,0,0-.5-1.71,10.68,10.68,0,0,1-.5-1.51,16.48,16.48,0,0,1-.3-2.38c0-.58,0-1.16,0-1.77a3.8,3.8,0,0,1,4.07,2.24,10.36,10.36,0,0,1,1,3.72A16.39,16.39,0,0,1,238.45,238.87Zm-47-.16-.57-2.25c0,.74,0,1.49,0,2.24A4.09,4.09,0,0,0,191.48,238.71Zm31.7,32.76c-10.45.54-20.82.69-31.33.69l-11.81.67a54.62,54.62,0,0,1-2.7,6.89c-.33.69-.86,1.54-1.41,2.43,1.65-1.44,3.8-3.22,5.44-2.51a2.77,2.77,0,0,1,1.09.87c1.08,1.32,1.6,3.45,3.19,3.95,2.5.79,6-1.95,7.09.22a4.33,4.33,0,0,1,.35,1.82c.81-.37,2.43-1.71,3.34-1.53s.86,1.24,1.56,1.77a1.67,1.67,0,0,0,.28.18c2,.87,2.46-1.65,3.66-2.4,1.21,1.21,1.22,3.76,3.1,3.41,1.06-.2,1.73-1.7,2.52-2.58a1.9,1.9,0,0,1,.79-.58c.87-.28,1.43.34,2.14.53l.79.22A5.66,5.66,0,0,1,213.9,287c.53.5,1.58,2.32,2.18,2.49a1,1,0,0,0,.84-.06,3.45,3.45,0,0,1,.92-.56,7,7,0,0,1,1.31-.21c2.12-.18,4.41.35,6.34-.26a4.44,4.44,0,0,0,2-1.55,17.69,17.69,0,0,1,1.65-1.94A4.48,4.48,0,0,1,231,284c2-.55,4.37-.17,5.73-1.32a3.52,3.52,0,0,0,1.09-2.58c.47.44,1,1,1.5,1.56a13.18,13.18,0,0,0-1.61-5.87C234.38,270.08,229.47,271.14,223.18,271.47Zm-88-92.94,4.34-3.21c-.73-1-1.71-3.06-2.69-3.79-1.21-.89-.76-.9-1.27.24C134.75,173.47,135.3,176.64,135.15,178.53Zm62.43.38c-.37-2.68-4.11-5.53-5.68-7.42-.93,1.47-.73,6.93-.17,8.17Zm17.71,2.54c-1.69,2.76-2.12,6.91-4.7,9l6.79-.19C216.7,188,217,183,215.29,181.45Zm5.43-8.21c-.53.54-.3,3.1-.45,3.89-.34,1.84-.65,3.68-.81,5.55l6.6-2.83C225.3,178.41,222.06,171.88,220.72,173.24Zm14-2.85c1.26,1.24,4,1.21,5.68,1.16l8.3-6.79a2.77,2.77,0,0,0-.11-1.65c-1.44-3.36-11.15-1-13.15.18-1.84,1.1-2.47,4.49-1.19,6.51A3.8,3.8,0,0,0,234.72,170.39Zm50.94-3.74c-.15-.12-.32-.22-.48-.33a26.05,26.05,0,0,1-2.33-1.45l-.25-.21c-1.47-1.26-2.6-2.8-4.55-3.54-.52,1.41.06,4.85-1.27,5.75s-5.1-.47-6.72-.41a18.06,18.06,0,0,0,1.46,8.66c.17.4.32.75.47,1.07a25.77,25.77,0,0,0,0,2.63c-1.89-.8-3.95-2.09-4.81-1.66-1.55.79-1.38,3.26-3.3,3.32-1.08,0-2.76-1.5-3.53-2.1-1.95-1.5-2.54-2.18-4.11,0-1.07,1.45-1.73,3.34-2.93,4.68a4.74,4.74,0,0,1-2.46,1.33,4.34,4.34,0,0,0-1.11.57,2.9,2.9,0,0,0-.64.59l-2.48-.26a65.29,65.29,0,0,0-11-.61q-1.25.08-2.49.27a19,19,0,0,0-11.4,6.09,26.43,26.43,0,0,0-1.72,2.08c-.15.2-.31.38-.45.59-5.61,7-11.91-4.2-18.22-7a7.49,7.49,0,0,0-5.32-.54,7.84,7.84,0,0,0-2-2.85c-1-.9-2.59-1.16-3.8-2s-2-2-2.94-2.77c-3.58,3.77-3.49,11.32-2.23,16.39a5.88,5.88,0,0,1-2-.49,56,56,0,0,0-10.88-4.28c-5.77-1.7-11.59-3-17.15-5.53a4.21,4.21,0,0,1-1.74-1.39,2.82,2.82,0,0,0,1,.23l14,4.34c-.81-.92-1.79-1.37-2.49-2.21a3.48,3.48,0,0,1-.38-.54,42.74,42.74,0,0,1-2-5.11,32,32,0,0,1-1.76-4.42c-.35-1.52-.25-2.83-2.26-2.12a19.36,19.36,0,0,0-4.55,3.06,25.51,25.51,0,0,0-1.42-2.72c-.39-.62-1.42-2.79-2.26-2.94-.64-.12-1.83,2.34-2.41,5.14-6.66-2-12.84,6.56-17.47,9.28-1.87-2.42-2.62-5.72-4.7-7.89-1.49,1.83-2.34,4.79-3,7.51-.79-.24-1.59-.5-2.39-.78l-.81-.3a41,41,0,0,0-1.72-3.85l-.3-.58c-2.27-4.3-.79-8.31-1.64-12.9-3.25,1.12-4.91,3.43-6.84,6a17.71,17.71,0,0,0-2.7,5.36c-1.36-.66-2.73-1.34-4.12-2-1.17-.57-2.36-1.13-3.54-1.67a6.75,6.75,0,0,0,.51,1.86l.67,4.39c.57,3.2,2.28,4.33,4.78,6.21,2.93,2.21,3.08,2.77,2.64,5.93-.85,6.11-.2,13,4.74,17.76,5.5,5.27,15,4.18,21.95,4.18,2.61,0,5.68.48,8.13-.39,2.19-.77,5.09-5.26,7.59-4.63,1.65.42,1,1.64,2.19,2.9,1.38,1.51,2.93,1.79,4.61,2.78,7.21,4.21,20.21,4.16,28.58,3.08a19.17,19.17,0,0,0,8.5-3.31c2.45-1.81,3.59-3.62,6.88-4.17a5.59,5.59,0,0,1,3.44.34l-9.88,7.78c-2.56-.23-4.93,1.12-7,2.19.81,4.51,2.42,8.88,2.92,13.48a8.57,8.57,0,0,1,1.24-1.65c.25-.3,1.08-1.61,1.49-1.55a.71.71,0,0,1,.44.33c.43.59.64,1.75,1.32,1.61,1-.21,2.1-3.16,2.81-3.95.42.63.8,1.29,1.2,1.94a17.91,17.91,0,0,0,1.11,1.67c1.34,1.75,1-.9,1.92-1.6q.36.42.72.87c1.23,1.49,2.45,3.1,3.54,4.7.57.81,1.2,1.63,1.8,2.46l.2.27c.8,1.12,1.7.7,2.79,0a7.22,7.22,0,0,0,.9-.71c.21-.19.41-.4.63-.62.48-.48,1.1-1.66,1.67-1.93,1.09-.52,1.39,1.39,2.36,1.31l.14,0c.34-.09,1-1,1.37-1.27s.7-.57,1.06-.84l.6-.45a16.46,16.46,0,0,0,3.23-4,.61.61,0,0,1,.07-.1,8.15,8.15,0,0,1,1.07,2.76c.12-2.41-.22-5.05.14-7.25.19-1.16.75-2.58.86-3.61.37-3.26.44-3.11-2.37-4.06-3.51-1.18-6-.73-9.19-2.87a24.14,24.14,0,0,1-3-2.61,41.53,41.53,0,0,0,5.16.84c7.4.8,12.47-2.15,18.86-5.23,5.31-2.57,12.19,1.65,18.29,1.79,8.71.2,19.58-5.31,24.71-12.1,3.53-4.65,3.49-12,2.48-17.77l-1.63.17a10.39,10.39,0,0,0-.56-2.34l1.38-.92.06,0a2.22,2.22,0,0,0-.24-.49l0-.07h0ZM120.51,200.41c-.88-2,.43-5.42,1-7.46,2.46,1.62,3.34,6.7,5,9.2Zm12.19,4.25a28.8,28.8,0,0,1,.11-5.73q1.22,1.89,2.4,3.8Zm22.63,4.26a5.61,5.61,0,0,1,.19-3.91,12.46,12.46,0,0,1,3.74-5.21c1.46,2.26,1.35,6.82,1.65,9.56l.3,2.54c.16,1.33.33,2.66.51,4Zm37.53,4.45v-1.71c0-3.61,0-7.23,0-10.84,1.91,1.86,3.28,4.49,4.64,6.79l.2.34Zm4.84-13.15a35.9,35.9,0,0,1,1-8.18c1.41,1.84,1.39,4.28,2.48,6.24ZM209.39,212l-3.76-1.16a5.77,5.77,0,0,0,.71-.69,13,13,0,0,0,1.74-2.63c.86-1.64,1.58-3.43,2.44-4.85,1.47,2.08,1.66,5.2,2.11,8a18.49,18.49,0,0,0,.55,2.51Zm30.87-10.44c.44-1,.83-2,1.22-3a32.62,32.62,0,0,1,2.71-5.67c1.73,2.13,1.59,5.42,1.51,8.48a21.07,21.07,0,0,0,.17,4.29Zm48.55-35.34-.51.61A1.34,1.34,0,0,0,288.81,166.23Zm3.84-9.74a25.91,25.91,0,0,0-4.8-2c.23,1.8.09,3.57.41,5.3.07.38.22,1,.37,1.71a17.83,17.83,0,0,1,.42,2.76,4.44,4.44,0,0,1-.24,1.94L291.5,163l4.16-5C294.71,157.54,293.69,157,292.65,156.49Z" transform="translate(-28 -25)"/><path class="e" d="M279.57,177.81l-1.38.92a10.39,10.39,0,0,1,.56,2.34l1.63-.17a.43.43,0,0,1,0-.11A20,20,0,0,0,279.57,177.81Zm-.22-.59,0,.07s0-.06,0-.08Zm15-23.81c-.35-.35-.72-.7-1.1-1.06-1.58-1.45-3.65-3.25-5.78-3.71a4.19,4.19,0,0,0-2,0,5.9,5.9,0,0,0-.88.32c-2.77,1.24-6.24,4.91-8.07,6.79-1.55,1.58-2.69,4.21-4.12,5.71-.68-1.67-1.42-3.57-2.75-4.32a15.35,15.35,0,0,0-.35,5.29,4.38,4.38,0,0,1-1-.49l-.35-.24c-.18-1-.36-2.06-.52-3.07-.38-2.41-.34-9.88-2.58-11.57-1.38,1.14-2.58,4.06-3.46,5.62a18.82,18.82,0,0,0-1,2.18c-2.45-2-5.15-3.1-8.71-1.8-2.14.79-5.43,3.21-7.68,2.37-1.12-.42-2.75-2.82-3.61-3.7-2.89-2.95-1.51-2.34-4.32-.43s-5.27,4.58-8.07,6.53c-3.54-3.45-3-10.37-8.6-5.48-4.29,3.74-8.7,7.72-13,11.56-4.2-2.54-6-4.91-9.51-8.16-2.53-2.36-2.36-1.85-4.38.55a48.07,48.07,0,0,0-4.65,7.28c-1.33,2.35-2.5,6.81-5.37,7-1.57.08-4.67-2.28-6.05-3a68.18,68.18,0,0,0-9.59-3.76c-1.87-.65-5.44-3-7.36-2-1.69.87-1.29,4.41-3,5.07s-7.87-3.83-9.54-4.8a92.14,92.14,0,0,0-10.7-5.57c-4.76-2-5.83,2.84-7.06,6.73A14.82,14.82,0,0,1,123,160.1a36,36,0,0,0-3.45-2.34,14.24,14.24,0,0,0-1.35-.69,28.7,28.7,0,0,0-5.89-1.69,30.45,30.45,0,0,0-2.54-10.73,8.35,8.35,0,0,0-1.28-2.18c-.95-1.05-2.23-1.31-4.64-.76-3.2.72-6.35,5.13-6.81,8.14-.52,3.5.84,6,2.37,8.77,0,1.9.25,3.84.33,5.55.13,2.84-.61,7-.18,10,1.18.54,2.37,1.1,3.54,1.67,1.39.66,2.76,1.34,4.12,2a17.71,17.71,0,0,1,2.7-5.36c1.93-2.61,3.59-4.92,6.84-6,.85,4.59-.63,8.6,1.64,12.9l.3.58a41,41,0,0,1,1.72,3.85l.81.3c.8.28,1.6.54,2.39.78.66-2.72,1.51-5.68,3-7.51,2.08,2.17,2.83,5.47,4.7,7.89,4.63-2.72,10.81-11.24,17.47-9.28.58-2.8,1.77-5.26,2.41-5.14.84.15,1.87,2.32,2.26,2.94a25.51,25.51,0,0,1,1.42,2.72,19.36,19.36,0,0,1,4.55-3.06c2-.71,1.91.6,2.26,2.12a32,32,0,0,0,1.76,4.42,42.74,42.74,0,0,0,2,5.11,3.48,3.48,0,0,0,.38.54c.7.84,1.68,1.29,2.49,2.21l-14-4.34a2.82,2.82,0,0,1-1-.23,4.21,4.21,0,0,0,1.74,1.39c5.56,2.56,11.38,3.83,17.15,5.53a56,56,0,0,1,10.88,4.28,5.88,5.88,0,0,0,2,.49c-1.26-5.07-1.35-12.62,2.23-16.39,1,.82,1.86,2,2.94,2.77s2.76,1.13,3.8,2a7.84,7.84,0,0,1,2,2.85,7.49,7.49,0,0,1,5.32.54c6.31,2.8,12.61,14,18.22,7,.14-.21.3-.39.45-.59a26.43,26.43,0,0,1,1.72-2.08,19,19,0,0,1,11.4-6.09q1.25-.19,2.49-.27a65.29,65.29,0,0,1,11,.61l2.48.26a2.9,2.9,0,0,1,.64-.59,4.34,4.34,0,0,1,1.11-.57,4.74,4.74,0,0,0,2.46-1.33c1.2-1.34,1.86-3.23,2.93-4.68,1.57-2.16,2.16-1.48,4.11,0,.77.6,2.45,2.14,3.53,2.1,1.92-.06,1.75-2.53,3.3-3.32.86-.43,2.92.86,4.81,1.66a25.77,25.77,0,0,1,0-2.63c-.15-.32-.3-.67-.47-1.07a18.06,18.06,0,0,1-1.46-8.66c1.62-.06,5.42,1.29,6.72.41s.75-4.34,1.27-5.75c1.95.74,3.08,2.28,4.55,3.54l.25.21a26.05,26.05,0,0,0,2.33,1.45c1.28-.7,2.57-1.36,3.87-2a17.83,17.83,0,0,0-.42-2.76c-.15-.71-.3-1.33-.37-1.71-.32-1.73-.18-3.5-.41-5.3a25.91,25.91,0,0,1,4.8,2c1,.53,2.06,1,3,1.48l-4.16,5c.91-.5,1.81-1,2.7-1.6C298.33,158.68,297.15,156.22,294.37,153.41ZM135.15,178.53c.15-1.89-.4-5.06.38-6.76.51-1.14.06-1.13,1.27-.24,1,.73,2,2.75,2.69,3.79Zm56.58,1.13c-.56-1.24-.76-6.7.17-8.17,1.57,1.89,5.31,4.74,5.68,7.42Zm18.86,10.75c2.58-2,3-6.2,4.7-9,1.74,1.53,1.41,6.51,2.09,8.77Zm8.87-7.73c.16-1.87.47-3.71.81-5.55.15-.79-.08-3.35.45-3.89,1.34-1.36,4.58,5.17,5.34,6.61Zm29.24-17.92-8.3,6.79c-1.64,0-4.42.08-5.68-1.16a3.8,3.8,0,0,1-.47-.59c-1.28-2-.65-5.41,1.19-6.51,2-1.2,11.71-3.54,13.15-.18A2.77,2.77,0,0,1,248.7,164.76Zm-96.67,90-1.19,3.95-.81,2.68c4.23,4.32,13,7.46,17.14,7h0c.5.06,1,.1,1.5.17,1.23.14,2.46.47,3.68.6a36.74,36.74,0,0,0,5.45-.06c.33,0,.68,0,1,0s.71-.06,1.18-.12a9.29,9.29,0,0,1,1.5.12c1.94.35,3.81.82,5.76,1.17l7.16.77a1.88,1.88,0,0,0,1.44-2.13,6.87,6.87,0,0,1,.11-1.31,10.35,10.35,0,0,1,3.4-5.38,22.64,22.64,0,0,0,4.21-4.88c.18-.29.37-.57.54-.88a7.22,7.22,0,0,0-5.17.78c-1.44.67-2.83,1.52-4.15,2-2.68,1.08-5.36,2.22-8,3.59-2,1-3.29,2.37-5.52,2.94-.58.14-1.24.25-1.85.4l0,0c-.83-.75-1.72-1.43-2.53-2.19a14.76,14.76,0,0,1-2.13-2.2c2.45-.77,5.29-.47,7.78-1.45-.28-.74-1-1.12-1.62-1.59a10.9,10.9,0,0,1-1.86-2.3l-.06-.09a6.7,6.7,0,0,0-1.72-2,5.87,5.87,0,0,0-2.38-.62,3.47,3.47,0,0,0,.1-.82c-.88-.18-1.37-1-2-1.3l-3.71-1.69C169,248,168.11,247,167,246.67l.08.7-1.25,4.8-.67,2.59-4.6-4.19-.6-.55-.33.72L157,256.5,152.82,254l-.47-.28Zm111.65-11.29c-.26.38-.62.79-.91,1.14-.1.12-.19.24-.26.34a6.87,6.87,0,0,1-1.31,1.38,14.26,14.26,0,0,1-1.16.89c-.83.59-1.37,1.49-2.24,1a6.47,6.47,0,0,1-1.75-2.18l-.19-.33c-.39-.67-.52-1-.81-1.12a3.57,3.57,0,0,0-1.42-.13c-.48,0-1,0-1.45,0a4.36,4.36,0,0,1,0,2.06c-.06.13-.13.23-.19.34a4.86,4.86,0,0,1-1.43,1.37,32.69,32.69,0,0,0-5,2.82,14.89,14.89,0,0,1-2.62,1.37c-.4.11-1,0-1.4.12-2.39.43-4.5,1.5-6.82,2.17-1.61.46-3.25.2-4.84.63a3.66,3.66,0,0,0,1.42,1.17c1.56.79,3.61.89,4.81,2.12-.56,1-2.72,1.53-3.72,2.18-.71.46-1.9.92-2.35,1.63a37.43,37.43,0,0,1,4.1.24,24.51,24.51,0,0,0,3.37.51c.13.83-1.37,2.42-1.78,3.17a10.45,10.45,0,0,0-.66,1.45,16.57,16.57,0,0,1-.87,2c1.25.65,3.88.15,5.32.15a16,16,0,0,0,4.84-.4,39.8,39.8,0,0,0,8.07-3.34c2.4-1.35,5.15-2,7.37-3.72.59-.46,1.5-.84,2.13-1.4,1.87-1.32,3-4,3.84-6.1l1-6.75a3.56,3.56,0,0,0-.14-1.73A5.85,5.85,0,0,0,263.68,243.45Zm-72.92-8.94a1.71,1.71,0,0,0-.16.72l.31,1.23.57,2.25.85,3.37c-.2.5.33,1.2,1,1.87.93.88,2.19,1.72,2.62,2.07a2.89,2.89,0,0,0,2.46,1h0c1.21-.32,1.06-2,2-2.85s1.39.24,2.08,1.06a3.18,3.18,0,0,0,.41.41,17.52,17.52,0,0,0,2.57,1.73,8.35,8.35,0,0,0,2.54.85c1.07.13,2.06-.12,2.4-1.28a9.81,9.81,0,0,1,1.51,1,4.09,4.09,0,0,0,1,.51c1.2.37,3.43.63,4.69,0a2,2,0,0,0,.32-.18c.83-.63,1.28-2.14,2.29-2.37a.5.5,0,0,1,.13,0c.9-.1,2.06,1.4,3.1,1,.66-.25.62-1.1.71-1.81v0a15.66,15.66,0,0,1,.52-3.85,13.35,13.35,0,0,0,.62-1.26,9.33,9.33,0,0,0-.48-4.12c-.17-.62-.3-1.3-.46-2a8.15,8.15,0,0,0-1.07-2.76.61.61,0,0,0-.07.1,16.46,16.46,0,0,1-3.23,4l-.6.45c-.36.27-.72.55-1.06.84s-1,1.18-1.37,1.27l-.14,0c-1,.08-1.27-1.83-2.36-1.31-.57.27-1.19,1.45-1.67,1.93-.22.22-.42.43-.63.62a7.22,7.22,0,0,1-.9.71c-1.09.7-2,1.12-2.79,0l-.2-.27c-.6-.83-1.23-1.65-1.8-2.46-1.09-1.6-2.31-3.21-3.54-4.7q-.36-.45-.72-.87c-.87.7-.58,3.35-1.92,1.6a17.91,17.91,0,0,1-1.11-1.67c-.4-.65-.78-1.31-1.2-1.94-.71.79-1.81,3.74-2.81,3.95-.68.14-.89-1-1.32-1.61a.71.71,0,0,0-.44-.33c-.41-.06-1.24,1.25-1.49,1.55A8.57,8.57,0,0,0,190.76,234.51Zm-38,15.23a1.71,1.71,0,0,0,.35.59,14.93,14.93,0,0,0,2,2c.48.39.89.64,1.07.58s.33-.74.46-1.35c.08-.41.14-.78.16-.88a16.86,16.86,0,0,1,.41-1.87,5,5,0,0,1,.25-.7c.37-.87.71-1.76,1-2.65-1.37-.1-2.78,0-4.16,0Zm11-1.26a8,8,0,0,1,.89.43l.18.1,0-.34.15-2.15.17-2.34.2-2.93c-2.68,0-4.13,1.62-4.1,4.28a2.8,2.8,0,0,0,.46,1.77A4.41,4.41,0,0,0,163.7,248.48Zm8.25-7.16.39,0,.06-.18.51-1.56,1.32-4,.48-1.49a2.49,2.49,0,0,0-2.36,1.17,4.34,4.34,0,0,0-.27.66c-.18.54-.31,1.13-.53,1.62a4.59,4.59,0,0,0-.75,2.48c0,.11,0,.21,0,.3C171,241,171.16,241.24,172,241.32Zm62.18-5.15a7.67,7.67,0,0,1,.5,1.71l.15.74a28.53,28.53,0,0,0,3.67.25,16.39,16.39,0,0,0-.06-2.4,10.36,10.36,0,0,0-1-3.72,3.8,3.8,0,0,0-4.07-2.24c0,.61,0,1.19,0,1.77a16.48,16.48,0,0,0,.3,2.38A10.68,10.68,0,0,0,234.13,236.17Zm9.49-5.68a.67.67,0,0,0-.59.34,6.44,6.44,0,0,0-.78,2.69c-.14,1.07-.21,2.26-.24,3.34s0,2.24,0,2.79l1,.74a11.09,11.09,0,0,0,2.31-.09c.07-.48.21-1.54.3-2.78a24.2,24.2,0,0,0,0-3.3,6.28,6.28,0,0,0-.84-3A1.64,1.64,0,0,0,243.62,230.49ZM164,152.12l8.67,4.91a20.38,20.38,0,0,0,8.15,4.67c3.27.85,4.18-4.32,4.59-6.88.24-1.47,1.67-6.3.44-7.23-.57-.43-3.78,0-4.45,0a33.15,33.15,0,0,0-6.88,1.5C171.07,150.09,167.34,150.85,164,152.12Zm43,2.7c1-1.31,3.11-6,2.8-7.77-.41-2.29-5.92-1.15-8.07-1.15l.19,5.66C203.58,153,204.58,154.94,207,154.82Zm8.48-44.41c4.54-2.81,8.79-6.39,13.44-8.8-2.73-1.12-4.94-1-7.86-1.2.38-2.6,2.84-5.8,5.54-6.53-4-.48-8.72,2.3-11.92,4.4-3.35,2.2-7,6.43-8.24,10.27l3.78,9.81C210.09,114.89,212.78,112.07,215.48,110.41Zm-61.84,17.38a4.88,4.88,0,0,1,1.3,3.07,6.51,6.51,0,0,1,0,1.08l18.11-7a18.07,18.07,0,0,0,.93-2.32c.62-1.89,1.14-4.2.79-5.19-1.75,1.4-3.43,2.72-5.77,2.39-.38-1.69,0-3.8-.13-5.6-2-.21-6.1,3.53-5.25-.78a30.13,30.13,0,0,1,1.36-4.3c.7-1.94,3.71-4.3,3.54-6.23-6.69,1.53-11.8,7.1-15.13,12.92-1.43,2.51-3.76,6.69-2.6,9.69C151.29,126.82,152.71,126.88,153.64,127.79Zm-26.79,15.09,4,2.64c3.41.89,7.24-.49,10.33-1.75a22.75,22.75,0,0,1,2.88-1.19,9.75,9.75,0,0,1,1.91.06,2.17,2.17,0,0,0,1.09-.13c.64-.35,1.23-2.36,1.15-3.36a3.67,3.67,0,0,0-.23-1.07,5.78,5.78,0,0,0-2.4-2.55c-1.86-1.35-2.74-4.88-4.54-5.68-2-.87-4.58,2.61-6,1.3-.35-.33-.67-2.71-.76-3.18-.3-1.57-.08-3.15-.29-4.71-3.31.84-7.18,6.27-8.15,9.42a10.6,10.6,0,0,0-.28,4.95C125.72,139,125.69,142.25,126.85,142.88Zm85-23.53,6.39,6.39a34.11,34.11,0,0,0,2.26-4c1.26-2.68,4.15-6.49,3.89-9.61-2.34-.1-5.46,1.49-7.35,2.56C215.38,115.64,213.42,119.1,211.82,119.35Zm37.72,18.38c1.05,1.35,3,1.05,4.48,1l.91,0c3.26-.12,6.61-.08,9.9-.21-.95-1.42-3.35-4.38-3.07-6.09,1.86-.27,4.09.27,5.83,0-.58-2-3.45-3.08-3.51-5,2,0,3.89-1.16,5.93-1.34,2.41-.2,5-.87,7.35-.84-5-3.37-9.92-4.4-16-3.85A18,18,0,0,0,256,122.6c-1.94.9-2,3-3.55,4.09-1.53-2.59-5.86-5.15-9.11-5-.14,0-.27,0-.4,0,.1,1.32-.7,2.49-.8,3.8-.16,2.17,0,4.41,0,6.58ZM229.41,153c1.9.73,6.49-7,7.56-8.49l-9.87,3.68C227.58,149,228.54,152.66,229.41,153Zm19.94-3.85H243C244.69,153.7,246.72,150.75,249.35,149.14Zm-36.17,64a18.49,18.49,0,0,1-.55-2.51c-.45-2.79-.64-5.91-2.11-8-.86,1.42-1.58,3.21-2.44,4.85a13,13,0,0,1-1.74,2.63,5.77,5.77,0,0,1-.71.69l3.76,1.16Zm-20.32-12.36c0,3.61,0,7.23,0,10.84v1.71L197.7,208l-.2-.34C196.14,205.31,194.77,202.68,192.86,200.82Zm8.32-2.54c-1.09-2-1.07-4.4-2.48-6.24a35.9,35.9,0,0,0-1,8.18ZM121.52,193c-.58,2-1.89,5.45-1,7.46l6,1.74C124.86,199.65,124,194.57,121.52,193Zm11.18,11.71,2.51-1.93q-1.19-1.9-2.4-3.8A28.8,28.8,0,0,0,132.7,204.66Zm28.21,4.7c-.3-2.74-.19-7.3-1.65-9.56a12.46,12.46,0,0,0-3.74,5.21,5.61,5.61,0,0,0-.19,3.91l6.39,7c-.18-1.32-.35-2.65-.51-4Zm83.28-16.5a32.62,32.62,0,0,0-2.71,5.67c-.39,1-.78,2-1.22,3l5.61,4.06a21.07,21.07,0,0,1-.17-4.29C245.78,198.28,245.92,195,244.19,192.86Zm-30.05,64.52c-1.19,1.82-3.32,3.07-4.62,4.95a58.89,58.89,0,0,0,12.54-1.57c3-.72,6-.95,6.36-4a5.47,5.47,0,0,0,0-1l-14.12,1.35C214.28,257.19,214.21,257.28,214.14,257.38ZM242.72,286a49,49,0,0,0-3.44-4.34c-.53-.58-1-1.12-1.5-1.56a3.52,3.52,0,0,1-1.09,2.58c-1.36,1.15-3.71.77-5.73,1.32a4.48,4.48,0,0,0-1.84.94,17.69,17.69,0,0,0-1.65,1.94,4.44,4.44,0,0,1-2,1.55c-1.93.61-4.22.08-6.34.26a7,7,0,0,0-1.31.21,3.45,3.45,0,0,0-.92.56,1,1,0,0,1-.84.06c-.6-.17-1.65-2-2.18-2.49a5.66,5.66,0,0,0-2.63-1.52l-.79-.22c-.71-.19-1.27-.81-2.14-.53a1.9,1.9,0,0,0-.79.58c-.79.88-1.46,2.38-2.52,2.58-1.88.35-1.89-2.2-3.1-3.41-1.2.75-1.62,3.27-3.66,2.4a1.67,1.67,0,0,1-.28-.18c-.7-.53-.67-1.59-1.56-1.77s-2.53,1.16-3.34,1.53a4.33,4.33,0,0,0-.35-1.82c-1.11-2.17-4.59.57-7.09-.22-1.59-.5-2.11-2.63-3.19-3.95a2.77,2.77,0,0,0-1.09-.87c-1.64-.71-3.79,1.07-5.44,2.51-.46.4-.89.77-1.25,1.06L172.36,288c-.43,4.9-6.53,7.91-7.75,12.74a19.4,19.4,0,0,0,3.93-.4c3.71-.6,8.54-1.48,10,0a1.46,1.46,0,0,1,.39.64,10.21,10.21,0,0,0,8.87-4.09,8.21,8.21,0,0,1,1.74-1.79,2.08,2.08,0,0,1,.93-.29c1.56-.11,2,2.09,3.9,2.13a2.84,2.84,0,0,0,1.3-.25,1.79,1.79,0,0,1,1.51-.09c2.1.68,3.7,2.44,6.35,2.29.62,0,.74-.76,1.38-.63.95.19,1.68,1.54,2.41,2.16a67.74,67.74,0,0,0,6.94,4.65c1-1.32.8-3.23.82-4.85,1,.42,2,.83,3,1.23s2.35.87,3.54,1.26a50.35,50.35,0,0,0,5.08,1.35l.38.08a7.44,7.44,0,0,0,3.57.12,3.31,3.31,0,0,0,1.85-1.66,18.21,18.21,0,0,0,1.07-2.5c.43-1.07.94-1.72,2.8-1.8a10.75,10.75,0,0,1,1.55.07c2.35.23,5.33.8,6.35-.83a3.46,3.46,0,0,0,.43-1.36,24,24,0,0,0-.44-6.57A8,8,0,0,0,242.72,286Z" transform="translate(-28 -25)"/><path d="M136.13,135.29a2.09,2.09,0,0,0-1.65.19,1.51,1.51,0,0,0-.61,1.4A5.17,5.17,0,0,0,134,138a6.36,6.36,0,0,0,.38,1.14,2.64,2.64,0,0,0,1.38,1.41.89.89,0,0,0,1.19-.43,3.58,3.58,0,0,0,.27-.82c.09-.33.17-.7.25-1.09a3.31,3.31,0,0,0-.05-1.89A1.78,1.78,0,0,0,136.13,135.29ZM131.57,172a1.58,1.58,0,0,0-1.43-.64,2.2,2.2,0,0,0-1.54.64,1.59,1.59,0,0,0-.28,1.51,4.77,4.77,0,0,0,.37,1.08,5.84,5.84,0,0,0,.61,1,2.34,2.34,0,0,0,1.62,1,1,1,0,0,0,1-.76,4.66,4.66,0,0,0,.07-.89c0-.34,0-.72,0-1.12A3.06,3.06,0,0,0,131.57,172Zm45,11.66s-.17.11-.56.31a17.71,17.71,0,0,1-7.79,1.77c-3.7,0-8.33-1.12-13.31-5.1a.79.79,0,0,0-.76-.11,4.21,4.21,0,0,0-2.28,4.11,8,8,0,0,0,.18,1.67.8.8,0,0,0,.36.5,37.46,37.46,0,0,0,11.69,4.14c1.49,4.19,4.58,7.91,10.34,8.12h0a.76.76,0,0,0,.45-1.37,6.66,6.66,0,0,1-.63-.53,17.93,17.93,0,0,1-4.34-6.28,10.44,10.44,0,0,0,7.72-6.28.75.75,0,0,0-.19-.88A.77.77,0,0,0,176.59,183.64Zm-31.19,1.47a2.22,2.22,0,0,0-2.05.49,4.59,4.59,0,0,0-1.32,2.53,13.23,13.23,0,0,0-.33,2,12,12,0,0,0,0,2c.11,1.22.47,2.1,1.06,2.37s1.14-.09,1.6-.91a15.14,15.14,0,0,0,.67-1.51c.24-.59.5-1.25.75-2a9,9,0,0,0,.73-3.32A1.66,1.66,0,0,0,145.4,185.11ZM143,171.49a8.57,8.57,0,0,0,.08-1.32c0-.51,0-1.08,0-1.67a5.89,5.89,0,0,0-.51-2.68,1.65,1.65,0,0,0-1.63-.94,2.28,2.28,0,0,0-1.74,1,3,3,0,0,0-.32,2.25,8.8,8.8,0,0,0,.42,1.6,9,9,0,0,0,.69,1.47,2.67,2.67,0,0,0,1.84,1.45C142.44,172.67,142.85,172.23,143,171.49Zm-.07,98.14a9.3,9.3,0,0,0-1.53-.93c-1.15-.59-2.48-1.14-2.9-1.45a16,16,0,0,1-1.74-1.52c-.56-.59-1.13-1.25-1.69-1.94s-1.13-1.41-1.64-2.15a14.85,14.85,0,0,1-1.32-2.34,25.85,25.85,0,0,1-1.21-3.53c-.32-1.17-.58-2.28-.83-3.28a22.74,22.74,0,0,1-.74-4.66c0-.25,0-.5,0-.74,0-.92.05-1.74.12-2.46s.17-1.53.26-2.09.16-.88.23-1.14a3.48,3.48,0,0,1,.1-.38.76.76,0,0,0-1.32-.7,16.08,16.08,0,0,0-1.36,2,20.46,20.46,0,0,0-1.18,2.67,20.09,20.09,0,0,0-.77,3.35,28.55,28.55,0,0,0-.18,3.12v.24a23.88,23.88,0,0,0,.25,3.11,30.09,30.09,0,0,0,.55,3,29.22,29.22,0,0,0,.87,3,25.3,25.3,0,0,0,1.2,2.85,31.22,31.22,0,0,0,2.51,3.83,20.77,20.77,0,0,0,3,3.17,17.56,17.56,0,0,0,2.09,1.39c.65.36,1.39.86,2.17,1.28a5.25,5.25,0,0,0,2.36.67h.26a4.07,4.07,0,0,0,2.17-.9,2.62,2.62,0,0,0,1.17-1.87v-.09A2.05,2.05,0,0,0,142.92,269.63Zm30.92-90.42a1.09,1.09,0,0,0,1.4-.57,4.93,4.93,0,0,0,.35-1c.11-.39.23-.82.33-1.28a3.81,3.81,0,0,0,0-2.2,1.88,1.88,0,0,0-1.46-1.16,2.67,2.67,0,0,0-1.95.28,1.86,1.86,0,0,0-.77,1.65,6.28,6.28,0,0,0,.1,1.35,6.73,6.73,0,0,0,.41,1.32A2.79,2.79,0,0,0,173.84,179.21Zm113,82.14-.21,0c-1,.07-1.49.81-2.06,1.43s-1.22,1.61-1.52,1.91L281.69,266c-.47.46-1,.91-1.46,1.35a14.66,14.66,0,0,1-1.46,1.23,11,11,0,0,1-1.48.85,19.31,19.31,0,0,1-1.93.77c-.62.22-1.19.43-1.73.68a17,17,0,0,1-2.47,1,16.06,16.06,0,0,1-2,.41c-.58.11-1.08.17-1.51.21s-.8,0-1,0h-.25a.58.58,0,0,0-.6.44.6.6,0,0,0,.32.68,13.22,13.22,0,0,0,1.5.58,11.85,11.85,0,0,0,1.66.4,9.74,9.74,0,0,0,1.62.13h.26a16.35,16.35,0,0,0,1.77-.13c.54-.06,1.07-.14,1.6-.25s1.06-.18,1.64-.32,1.21-.3,1.84-.5a17.43,17.43,0,0,0,2-.75,14.82,14.82,0,0,0,2.92-1.88,23.11,23.11,0,0,0,2.39-2.33c.45-.47.86-.93,1.22-1.34s.84-.84,1.28-1.33a3.1,3.1,0,0,0,.88-1.82v-.13a2.91,2.91,0,0,0-.52-1.56A2.1,2.1,0,0,0,286.83,261.35ZM282,246.48c-.09.9-.21,1.8-.37,2.69a15,15,0,0,1-.72,2.58,28.29,28.29,0,0,1-1.64,3.36c-.6,1-1.2,2-1.74,2.9a21.94,21.94,0,0,1-2.77,3.82,24.67,24.67,0,0,1-2.34,2.18c-.64.55-1.19,1-1.65,1.3s-.75.51-1,.64l-.34.2a.76.76,0,0,0-.38.9.77.77,0,0,0,.73.54h.09a17.12,17.12,0,0,0,2.41-.48,16.77,16.77,0,0,0,5.63-2.89,26.53,26.53,0,0,0,2.51-2.24,24.3,24.3,0,0,0,2-2.38,30.39,30.39,0,0,0,3.26-5.26,26.54,26.54,0,0,0,1.17-2.87,30.26,30.26,0,0,0,.93-4.48,22.06,22.06,0,0,0,.18-2.77q0-.83-.06-1.59a18.12,18.12,0,0,0-.49-2.46c-.21-.72-.37-1.6-.64-2.44a4.89,4.89,0,0,0-1.39-2.33,4.1,4.1,0,0,0-2.17-.89,3,3,0,0,0-.54-.05,2.48,2.48,0,0,0-1.6.54,1.86,1.86,0,0,0-.57,1.43,7.38,7.38,0,0,0,.45,2.12c.39,1.22.95,2.56,1,3.08a15.85,15.85,0,0,1,.15,2.23c0,.05,0,.07,0,.07C282.16,244.73,282.1,245.6,282,246.48ZM122.74,156a1.6,1.6,0,0,0-1.44-.64,2.17,2.17,0,0,0-1.53.64,1.57,1.57,0,0,0-.29,1.51,5.37,5.37,0,0,0,.38,1.08,4.8,4.8,0,0,0,.61,1,2.32,2.32,0,0,0,1.62,1,.94.94,0,0,0,1-.76,4.59,4.59,0,0,0,.08-.89c0-.34,0-.72,0-1.11A3.23,3.23,0,0,0,122.74,156Zm-1.91,24.39a1.6,1.6,0,0,0-1.44-.65,2.26,2.26,0,0,0-1.53.64,1.61,1.61,0,0,0-.28,1.52A4.54,4.54,0,0,0,118,183a5,5,0,0,0,.61,1,2.41,2.41,0,0,0,1.62,1,.94.94,0,0,0,1-.77,3.83,3.83,0,0,0,.08-.88c0-.34,0-.72,0-1.12A3.14,3.14,0,0,0,120.83,180.39Zm9.1,10.41a6.52,6.52,0,0,0-.84-2.75,1.66,1.66,0,0,0-1.74-.82,2.23,2.23,0,0,0-1.6,1.21,3.27,3.27,0,0,0,0,2.41,9.92,9.92,0,0,0,.61,1.64,10.11,10.11,0,0,0,.87,1.48,2.69,2.69,0,0,0,2,1.32c.62,0,1-.54,1-1.34a8.89,8.89,0,0,0-.08-1.39C130.09,192,130,191.42,129.93,190.8Zm144.63-41.14a2.21,2.21,0,0,0-1.65-.17,1.59,1.59,0,0,0-1.19,1,3.13,3.13,0,0,0,.08,1.85c.1.38.22.75.33,1.07a3.78,3.78,0,0,0,.33.83.92.92,0,0,0,1.2.42,2.31,2.31,0,0,0,1.27-1.4,5.37,5.37,0,0,0,.3-1.13,4.89,4.89,0,0,0,0-1.14A1.58,1.58,0,0,0,274.56,149.66ZM265,172.55a2.18,2.18,0,0,0-1.66-.17,1.56,1.56,0,0,0-1.18,1,3.13,3.13,0,0,0,.08,1.85c.1.38.21.75.32,1.07a4.65,4.65,0,0,0,.33.82.93.93,0,0,0,1.21.43,2.34,2.34,0,0,0,1.27-1.4,5.37,5.37,0,0,0,.3-1.13,5.51,5.51,0,0,0,0-1.14A1.56,1.56,0,0,0,265,172.55ZM262.83,185a2.25,2.25,0,0,0-1.65-.17,1.59,1.59,0,0,0-1.19,1,3.13,3.13,0,0,0,.08,1.85c.1.38.21.74.33,1.07a4,4,0,0,0,.32.82.93.93,0,0,0,1.21.43,2.39,2.39,0,0,0,1.27-1.41,5.29,5.29,0,0,0,.3-1.12,5.55,5.55,0,0,0,0-1.14A1.6,1.6,0,0,0,262.83,185Zm-84-62.77a.79.79,0,0,0-.44-.11s-1.55.08-4,.45c-.54.08-1.14.19-1.77.32a48.46,48.46,0,0,0-6.06,1.69,42,42,0,0,0-6.84,3.1,49.7,49.7,0,0,0-6.2,4.33,25.43,25.43,0,0,0-4.68,4.79,18.43,18.43,0,0,0-2.79,5.59,23.1,23.1,0,0,0-1,6.69.7.7,0,0,0,.63.69h.12a.8.8,0,0,0,.71-.52s.07-.21.24-.62a30.67,30.67,0,0,1,4.58-7.43,32.12,32.12,0,0,1,3.63-3.83,49.88,49.88,0,0,1,5.91-4.75,36.79,36.79,0,0,1,8.17-3.92l.19-.07a27.5,27.5,0,0,1,9.4-1,1.13,1.13,0,0,0,.64-.16,3.1,3.1,0,0,0,1.52-2.15C180.88,124.45,180.4,123.38,178.79,122.25Zm99.87,8.89a2.79,2.79,0,0,0-2.09-.21,2,2,0,0,0-1.5,1.3,4,4,0,0,0,.11,2.34c.13.49.27,1,.41,1.36a5.12,5.12,0,0,0,.41,1,1.18,1.18,0,0,0,1.53.54,3,3,0,0,0,1.6-1.78,6.34,6.34,0,0,0,.38-1.42,6.43,6.43,0,0,0,.05-1.44A2,2,0,0,0,278.66,131.14Zm28.91-3.58a32.46,32.46,0,0,0-8.12-11.5,28.61,28.61,0,0,0-12.06-6.35,36.91,36.91,0,0,0-15.05-.52c-1.21.2-2.39.44-3.57.72a46.39,46.39,0,0,0-.49-9,24.76,24.76,0,0,0-2.93-8.39,27.38,27.38,0,0,0-6-6.5,37.86,37.86,0,0,0-12.28-6.39,48.92,48.92,0,0,0-14.7-2.23,38.43,38.43,0,0,0-9.73,1.2,35.56,35.56,0,0,0-10.48,4.6,36.16,36.16,0,0,0-8.3,7.45,37.57,37.57,0,0,0-2.68,3.71A33.75,33.75,0,0,0,191,87.66a34.6,34.6,0,0,0-13.3-2.56,36.3,36.3,0,0,0-13.64,2.66,31.81,31.81,0,0,0-11.41,8.11,38.09,38.09,0,0,0-7.23,12c-.32.83-.59,1.67-.85,2.51a20.92,20.92,0,0,0-25.67,3A19.77,19.77,0,0,0,113,127.81a20.2,20.2,0,0,0,.27,2.93c-.53-.06-1.06-.12-1.6-.15a21.05,21.05,0,0,0-8.26,1.24,21.44,21.44,0,0,0-7,4.32,22.67,22.67,0,0,0-5,6.77,18.82,18.82,0,0,0-1.89,8.31,18.09,18.09,0,0,0,2,8.16,15.68,15.68,0,0,0,5.17,5.8c.42.29.86.55,1.31.8a16.72,16.72,0,0,0-3.47,5,15,15,0,0,0-1.31,6.16,14.21,14.21,0,0,0,6.34,11.7,22.71,22.71,0,0,0,6.8,3.14l.06,0a17.76,17.76,0,0,0-2.24,7.22,17.36,17.36,0,0,0,1.36,8.36,19.31,19.31,0,0,0,5.12,6.94,26.69,26.69,0,0,0,8.34,4.89,31.68,31.68,0,0,0,10.58,2,32,32,0,0,0,8.2-.89,30.73,30.73,0,0,0,7.32-2.83,26.78,26.78,0,0,0,6.21-4.72,25.43,25.43,0,0,0,3.09,4.24,27.46,27.46,0,0,0,10.57,7,36.93,36.93,0,0,0,21.27,1.44c0,.71,0,1.45,0,2.23l-3,.33c-4.24.45-8.29.86-12.09,1.35a91.49,91.49,0,0,0-11.16,2.13,53.71,53.71,0,0,0-9.63,3.69,35.4,35.4,0,0,0-7.11,4.63c-3.81,3.27-6,7-6.28,11,0,.25,0,.51,0,.77,0,3.77,1.7,7.45,4.79,10.86a26.31,26.31,0,0,0,6.59,5.13,45.29,45.29,0,0,0,9.79,4,78.42,78.42,0,0,0,12.22,2.43q3,.39,6,.69c-1,2.15-2.15,4.27-3.4,6.34a69.18,69.18,0,0,1-6.37,8.91,62.6,62.6,0,0,1-18.1,14.7,99.69,99.69,0,0,0,13.13,7.4,106,106,0,0,0,14.56,5.53,109.85,109.85,0,0,0,15.75,3.48,116.6,116.6,0,0,0,33.37,0A109.85,109.85,0,0,0,241,317.92a106,106,0,0,0,14.56-5.53,99.69,99.69,0,0,0,13.13-7.4,62.29,62.29,0,0,1-18.25-14.89,67.83,67.83,0,0,1-6.39-9,74.2,74.2,0,0,1-3.66-6.93c3.64-.65,7.11-1.41,10.3-2.26a54.81,54.81,0,0,0,9.07-3.28,30.59,30.59,0,0,0,11.09-8.45,19.76,19.76,0,0,0,4.26-10.49q.06-.66.06-1.32a15.84,15.84,0,0,0-3.1-9.32c-2.34-3.25-6.23-6-11.51-8.3a65.87,65.87,0,0,0-10-2.94,116.29,116.29,0,0,0-12.06-1.92c-2.44-.26-4.95-.46-7.51-.62,0-2.26.13-4.1.22-5.4.84-.34,1.67-.7,2.48-1.09a21.62,21.62,0,0,0,8.4-7,27.13,27.13,0,0,0,4.16,2.38,25.3,25.3,0,0,0,11,2.24,28.21,28.21,0,0,0,11-2.63,32.06,32.06,0,0,0,12.52-10.43,27.62,27.62,0,0,0,5.13-15.6,28,28,0,0,0-2.11-11.15c-.2-.49-.43-1-.66-1.44,1.24-.32,2.46-.69,3.65-1.1A39.53,39.53,0,0,0,299,167.19a31.89,31.89,0,0,0,8.28-10.5,33,33,0,0,0,3.27-14.12A37.13,37.13,0,0,0,307.57,127.56ZM240.42,289.5c.46.77.91,1.53,1.37,2.28s.94,1.49,1.42,2.22,1,1.43,1.46,2.12,1,1.37,1.53,2,1.06,1.29,1.61,1.9,1.11,1.2,1.69,1.77,1.17,1.12,1.78,1.64c-.73.51-1.47,1-2.22,1.46s-1.51.89-2.28,1.3-1.54.8-2.32,1.16l-.59.26c-1-1.42-2.61-3.71-4.52-6.86a112.71,112.71,0,0,1-5.74-10.72c-1.29-2.74-2.6-5.8-3.89-9.16-1.46.07-2.92.1-4.39.09A121.93,121.93,0,0,0,231,295a103.43,103.43,0,0,0,8.4,14.42c-.71.26-1.41.51-2.13.75l-2.12.68-.12-.15q-1.4-1.73-2.69-3.62c-.86-1.38-1.63-2.77-2.3-4.12s-1.23-2.64-1.71-3.82c-1.58-3.81-2.77-5.82-3.46-5.63s-.6,2.25.46,6.34c.37,1.27.85,2.7,1.45,4.25s1.32,3.18,2.14,4.84c.56,1.1,1.14,2.15,1.73,3.17l-1.06.28c-.88.22-1.78.43-2.69.63l-1,.2c-.32-.53-.64-1.07-1-1.64a38,38,0,0,1-1.8-3.95c-.57-1.73-1.11-3.6-1.63-5.56s-1-4.21-1.33-6.27c-.33-1.88-.58-3.56-.73-5s-.33-2.71-.48-3.71c-.28-2-.63-3-1-2.73s-.69,1.53-.91,3.84a38.85,38.85,0,0,0-.16,4.14,39.51,39.51,0,0,0,.54,5.41c.36,2.17.83,4.48,1.42,6.8s1.06,4.29,1.64,6.28c.38,1.15.78,2.19,1.17,3.17l-.37.06c-1,.13-2,.24-3,.32s-2,.16-3,.21-2.06.07-3.1.08-2.1,0-3.16,0-2.12-.07-3.17-.13-2.09-.14-3.13-.24c-.37,0-.73-.08-1.1-.12,0-.15.11-.31.15-.46a34.09,34.09,0,0,0,1.05-4.37c.54-4.21.17-6.43-.87-6.55s-2.26,1.84-3.61,5.74a36.52,36.52,0,0,1-1.54,3.91c-.15.34-.31.67-.48,1-.89-.15-1.78-.32-2.65-.49s-1.92-.39-2.87-.6l-1-.21a48.67,48.67,0,0,0,3.32-7.24.57.57,0,0,0-.05-.52.61.61,0,0,0-.45-.27c-2-.18-4-.41-6-.73a.58.58,0,0,0-.62.31,54.36,54.36,0,0,1-3.87,6.68l-2.32-.53-2.25-.54c.73-1.12,1.46-2.27,2.18-3.49.9-1.61,1.72-3.2,2.4-4.71s1.24-2.92,1.68-4.16c1.3-4,1.52-6.17.82-6.31s-2,1.72-3.77,5.43c-.54,1.15-1.18,2.41-1.92,3.72s-1.6,2.66-2.53,4-1.9,2.37-2.88,3.46l-.71.77-.82-.27q-1.26-.44-2.49-1c-.82-.35-1.62-.72-2.42-1.13s-1.57-.86-2.34-1.33c.72-.68,1.42-1.38,2.11-2.09s1.37-1.45,2-2.19,1.32-1.51,2-2.28,1.26-1.56,1.88-2.36l1.8-2.39c.58-.8,1.15-1.6,1.71-2.39s1.08-1.58,1.6-2.36,1-1.55,1.5-2.31.79-1.27,1.17-1.9.74-1.26,1.09-1.89.7-1.26,1-1.89.65-1.26,1-1.9.49-1,.73-1.49.35-.77.53-1.15c3.19.18,6.48.33,9.84.46a128,128,0,0,1-6,21.47.61.61,0,0,0,0,.51.6.6,0,0,0,.43.29c1.81.25,3.64.45,5.47.58h0a.58.58,0,0,0,.56-.43,163,163,0,0,0,4.58-22.22c2.55.09,5.14.17,7.77.21,0,7.2.07,13.44.4,17.52,0,0,2.68,3.72,3.3-3.3,0,0,0-5.81.18-14.19,4.75,0,9.4-.19,13.9-.54q3.93-.31,7.71-.8c.08.17.15.33.23.49q.39.84.81,1.68c.27.57.55,1.13.84,1.7l1,2c.35.66.69,1.33,1.05,2s.7,1.34,1.06,2,.73,1.33,1.09,2S240,288.72,240.42,289.5ZM238,255.66a51.05,51.05,0,0,0,6.45-1.45,22.73,22.73,0,0,0,7.69-3.8,7.71,7.71,0,0,0,2.94-4.65,5.42,5.42,0,0,0-1.9-4.72c-1.52-1.43-4.13-2.67-7.82-3.62a62.64,62.64,0,0,0-7.2-1c-2.14-.18-4.43-.31-6.82-.4-.09-1.38-.15-2.7-.2-4,.87.07,1.73.14,2.57.23a101.81,101.81,0,0,1,10.17,1.51,56.52,56.52,0,0,1,8.29,2.27c4.35,1.74,7.45,3.85,9.23,6.16a10.63,10.63,0,0,1,2.36,6.59c0,.31,0,.62,0,.94a13.78,13.78,0,0,1-3.33,7.61,19,19,0,0,1-3,2.84c-.5-1.11-1.16-1.67-1.77-1.63s-1.16.81-1.47,2.18a15.57,15.57,0,0,1-.44,1.8c-.73.4-1.49.78-2.3,1.15s-1.54.64-2.4.95a9.68,9.68,0,0,0-.32-1.95c-.5-1.44-1.26-2.16-2-2.11s-1.16.8-1.46,2.17a17.3,17.3,0,0,1-.79,2.82c-.06.16-.14.32-.2.47l-.37.09c-3.11.72-6.52,1.33-10.14,1.81s-7.41.83-11.33,1c-.72,0-1.45.06-2.18.09-.15-.5-.3-1-.43-1.4-.48-1-1-1.51-1.68-1.48s-1.14.59-1.38,1.68a11,11,0,0,0-.24,1.33c-1.48,0-3,.05-4.47.05h-1.71l-4.54-.08c-.19-.81-.39-1.6-.56-2.28-.55-1.27-1.24-2-2.07-2s-1.52.67-1.92,2a16.33,16.33,0,0,0-.49,2.1l-2.54-.09-4.8-.16c-.13-.56-.27-1.1-.39-1.57-.42-1-.95-1.57-1.59-1.58s-1.17.52-1.47,1.6a13.53,13.53,0,0,0-.34,1.42l-2.87-.12c-3.65-.18-7.19-.47-10.8-.82-1-.1-1.91-.21-2.86-.33a10.14,10.14,0,0,1-.47-1.63c-.23-.94-.56-1.49-1.1-1.5s-1.09.47-1.47,1.46a5.53,5.53,0,0,0-.22,1.17c-1.43-.25-2.83-.52-4.18-.84-1-.23-1.89-.48-2.79-.75-.16-.33-.32-.67-.47-1a13.18,13.18,0,0,1-.69-2.27c-.27-1.11-.65-1.75-1.29-1.76s-1.28.54-1.72,1.7a7.8,7.8,0,0,0-.29,1.73c-.38-.16-.76-.33-1.11-.5a22.55,22.55,0,0,1-5.59-3.68c-2.65-2.5-4-5.06-4-7.61,0-.16,0-.31,0-.46.17-2.72,1.84-5.36,5-7.88a31.36,31.36,0,0,1,6-3.64A49.06,49.06,0,0,1,167,237a81.34,81.34,0,0,1,9.38-1.67c3-.36,6.24-.67,9.62-1-.06,1-.12,2.1-.21,3.2-1.45.14-2.85.29-4.17.44-2.45.29-4.71.65-6.72,1.09a28.26,28.26,0,0,0-4.86,1.66,17.54,17.54,0,0,0-3.35,2c-1.8,1.4-2.87,2.94-3,4.61a6.14,6.14,0,0,0,2.06,4.76,11.35,11.35,0,0,0,2.79,2.06,18,18,0,0,0,4.42,1.52,60.31,60.31,0,0,0,7.4.88c3,.19,6.05.36,9.26.45s6.45.16,9.78.24l5,.1c1.7,0,3.42.06,5.17.07,3.49,0,6.9,0,10.21-.15s6.51-.31,9.57-.58S235.31,256.06,238,255.66Zm-6.21-14.41.72,0c2.2.12,4.14.29,5.79.51a18.94,18.94,0,0,1,6.28,1.87c1.2.76,1.72,1.58,1.53,2.45s-1,1.67-2.36,2.4a22.89,22.89,0,0,1-6.19,2c-1.2.24-2.66.46-4.32.65C232.54,247.71,232.07,244.39,231.74,241.25Zm-46.42,1c-.34,3-.81,6.16-1.44,9.42-1.94-.07-3.66-.17-5.15-.3a26.88,26.88,0,0,1-4.12-.71,11.71,11.71,0,0,1-2.55-1c-1.29-.75-2-1.58-1.9-2.44s1.06-1.67,2.63-2.41a22.25,22.25,0,0,1,3.1-1.08,44,44,0,0,1,4.6-.93C182,242.59,183.61,242.41,185.32,242.26Zm8.61-10.75c0-3.1-.15-5.94-.29-8.42a32.53,32.53,0,0,0,8.6-6.25c.72-.73,1.4-1.51,2.06-2.31.39.42.8.84,1.23,1.23a24.62,24.62,0,0,0,3.68,2.8c-.15,3.37-.41,9.28-.67,16.42,1.31-.59,2.62-1.16,3.94-1.66.22-5.19.47-9.63.76-12.7a24.3,24.3,0,0,0,2.94,1,18.41,18.41,0,0,0,5.94.52c.47,0,.94-.09,1.41-.15-.07,1.27-.13,2.65-.18,4.13a123,123,0,0,0,.32,13.54,108.61,108.61,0,0,0,1.66,12.11l-4.06.19c-.13-.66-.26-1.31-.37-2q-.47-2.69-.79-5.53c-.23-2-.42-4.46-.59-7.8-.09-1.67-.17-3.48-.24-5.24s-.15-3.41-.21-4.9l-2.62-1.64s.06,2.06.22,6.8c.05,1.27.1,2.69.15,4.18s.13,3,.2,4.49c.15,2.61.35,5.1.62,7.76.13,1.27.31,2.59.51,3.95h-.41c-1.91.05-3.88.06-5.87.07,0-1.32.07-2.71.13-4.36,0-.89.06-1.93.09-3.08s.07-2.45.1-3.78c.06-2.64.1-4.09.12-5a17.86,17.86,0,0,0-3.91,1.44c0,1.37-.08,3.46-.15,5.83s-.14,4.11-.18,5.54c0,1.24-.08,2.34-.11,3.42l-2.58,0-3.21-.05c.56-8.68.92-18.5,1-29.62a.59.59,0,0,0-.92-.49,6.59,6.59,0,0,1-2.39,1,.57.57,0,0,0-.47.57c0,6.61-.25,16.94-1.3,28.49h-.72l-3.89-.06-1.19,0c.1-.56.21-1.12.3-1.68A111,111,0,0,0,193.93,231.51Zm99.16-75.66a39,39,0,0,1-6.73,7.93c-.06-.21-.11-.41-.18-.62a16.21,16.21,0,0,0-1.59-3.68c-1.09-1.42-2.06-1.85-2.58-1.47s-.48,1.41,0,3.06a20.88,20.88,0,0,1,.63,3.55c0,.74.08,1.5.12,2.25a26.68,26.68,0,0,1-6,3.46,22.13,22.13,0,0,1-2.57.86c.25.41.49.83.71,1.26a20.1,20.1,0,0,1,2,9.75,21.11,21.11,0,0,1-1.73,7.22,24.32,24.32,0,0,1-1.17,2.27,13.28,13.28,0,0,0-.67-1.26c-1.09-1.42-2.06-1.85-2.58-1.47s-.48,1.41,0,3.06a22.22,22.22,0,0,1,.61,3.45l-.15.18a24.82,24.82,0,0,1-5.21,4.44,16.07,16.07,0,0,0-.82-3.55c-.8-1.61-1.68-2.22-2.26-1.94s-.74,1.3-.61,3a23.2,23.2,0,0,1-.05,3.6l-.12.86a22.59,22.59,0,0,1-3.2,1,19.59,19.59,0,0,1-4.18.52,2.75,2.75,0,0,1,.48-.33c0-.84.07-1.69,0-2.56a16.42,16.42,0,0,0-.57-4c-.68-1.66-1.51-2.33-2.11-2.1s-.83,1.24-.83,3a22.23,22.23,0,0,1-.33,3.58c-.14.7-.3,1.4-.46,2.1l-.19,0a19.49,19.49,0,0,1-6.73-2.91c-.88-.59-1.75-1.2-2.59-1.86a27.76,27.76,0,0,1-3.62,4.12c-1.37,1.29-2.92,2.59-4.65,3.94v-.36a16.34,16.34,0,0,0-.57-4c-.68-1.66-1.5-2.34-2.11-2.11s-.83,1.24-.83,2.95a22.45,22.45,0,0,1-.33,3.59c-.19.95-.41,1.91-.62,2.88-.69.38-1.39.75-2.11,1.07a19.63,19.63,0,0,1-5.21,1.6,16.77,16.77,0,0,0-.55-3.59c-.68-1.66-1.51-2.33-2.11-2.1s-.83,1.24-.83,3a20.88,20.88,0,0,1-.21,2.78,16.59,16.59,0,0,1-4.43-1.2,27.9,27.9,0,0,1-5.26-3.6,36.69,36.69,0,0,1-3.85-4c-.32-.39-.62-.76-.91-1.14-.46.43-1,.87-1.48,1.39-1.11,1.09-2.4,2.32-3.92,3.74s-3.21,3-5,4.35a21,21,0,0,1-5.53,3.23,22.19,22.19,0,0,1-6.11,1.39l-.92.07a22.35,22.35,0,0,1-1-3.2c-.37-1.67-.79-2.63-1.45-2.69s-1.3.74-1.6,2.51a15.07,15.07,0,0,0,.23,3.47c-.56,0-1.11-.05-1.66-.1a28.65,28.65,0,0,1-4.29-.71c-.48-1.07-1-2.12-1.47-3.18a22,22,0,0,1-1.1-3.43c-.38-1.66-.8-2.63-1.46-2.69s-1.3.74-1.6,2.51a16.86,16.86,0,0,0,.31,4c.07.37.15.73.24,1.09q-1.76-.74-3.57-1.68a17,17,0,0,1-3-2.57,22.48,22.48,0,0,1-2.62-3.5c-1.22-2.34-2.4-4.64-3.62-6.66-.66,1-1.39,2-2.2,3a41.13,41.13,0,0,1-2.72,3.11,24.51,24.51,0,0,1-5.59,4.5L142,210a21.65,21.65,0,0,1-1.17-3.41c-.41-1.66-.85-2.62-1.51-2.66s-1.29.76-1.55,2.54a16.27,16.27,0,0,0,.39,4c.09.43.19.85.3,1.27a21.28,21.28,0,0,1-4,.82,27.55,27.55,0,0,1-3.63.15c-.06-.14-.13-.28-.19-.41a22.31,22.31,0,0,1-1.1-3.43c-.38-1.67-.8-2.64-1.46-2.7s-1.3.75-1.6,2.52a15.94,15.94,0,0,0,.25,3.62c-.64-.11-1.28-.24-1.9-.4a23.75,23.75,0,0,1-3.71-1.25q-.28-1-.54-1.92a23.39,23.39,0,0,1-.56-3.55c-.11-1.71-.37-2.73-1-2.89s-1.39.53-2,2.23a15.56,15.56,0,0,0-.31,3.43,12.46,12.46,0,0,1-4-5.88,17.57,17.57,0,0,1-.34-8.28c.29-2.64.49-4.92.75-6.81l0,0a31.71,31.71,0,0,1-5.21-3.29,14.26,14.26,0,0,1-3.77-4.22,8.69,8.69,0,0,1-1-5.29,14,14,0,0,1,2.36-5.14,20.92,20.92,0,0,1,3.56-4.06,10.59,10.59,0,0,1-.84-.66,19.79,19.79,0,0,1-3.83-4.69,11.38,11.38,0,0,1-1.49-6.88,15.44,15.44,0,0,1,3.14-7.49,27.77,27.77,0,0,1,5.21-5.24,11.35,11.35,0,0,1,4.59-2.3,11.61,11.61,0,0,1,4.94,0l1,.21a10.47,10.47,0,0,1-.39-2.41,20.87,20.87,0,0,1,6.26-15.38,11.47,11.47,0,0,1,5.54-3.18,13,13,0,0,1,5.7.22,54.58,54.58,0,0,1,8.83,3.23A23.93,23.93,0,0,1,149,118a69.43,69.43,0,0,1,5.52-7.41c2.11-2.52,4-4.73,5.61-6.49a27.66,27.66,0,0,1,4.34-4,24.85,24.85,0,0,1,5-2.75,28.25,28.25,0,0,1,11.84-2.06,32.45,32.45,0,0,1,12,3.85,41.37,41.37,0,0,1,8.8,6.48c.69-1,1.44-2,2.23-2.93a51.64,51.64,0,0,1,6.59-7.11,29.19,29.19,0,0,1,8.48-5.38,22.93,22.93,0,0,1,8.22-1.63,41.76,41.76,0,0,1,12.51,1.9,32,32,0,0,1,10.44,5.44,22.32,22.32,0,0,1,5.09,5.9A28.31,28.31,0,0,1,258.3,110a50.33,50.33,0,0,1,.78,8.42c1-.19,2.06-.37,3.1-.52a37.44,37.44,0,0,1,13,.27,28.46,28.46,0,0,1,10.68,4.62,26.48,26.48,0,0,1,7.83,8.67,23.7,23.7,0,0,1,3,12.32A25.08,25.08,0,0,1,293.09,155.85ZM249.81,180.7a2.56,2.56,0,0,0-2.14-.39,1.88,1.88,0,0,0-1.45,1.48,5.76,5.76,0,0,0,.26,2.85c.16.6.34,1.17.51,1.67a7.78,7.78,0,0,0,.49,1.29,1.24,1.24,0,0,0,1.59.76,2.92,2.92,0,0,0,1.52-2.06,8.38,8.38,0,0,0,.29-1.7,9.21,9.21,0,0,0,0-1.75A2.89,2.89,0,0,0,249.81,180.7Zm37.25-35.51a2.25,2.25,0,0,0-1.65-.17,1.6,1.6,0,0,0-1.19,1,3.13,3.13,0,0,0,.08,1.85c.11.38.22.74.33,1.07a4,4,0,0,0,.33.82.93.93,0,0,0,1.21.43,2.35,2.35,0,0,0,1.26-1.41,5.29,5.29,0,0,0,.3-1.12,4.93,4.93,0,0,0,0-1.14A1.57,1.57,0,0,0,287.06,145.19ZM253.24,160.8a3.54,3.54,0,0,0-1.77-.78.78.78,0,0,0-.69.32c-5.65,8.12-12.45,9.44-16.5,9.46a16.53,16.53,0,0,1-2.5-.19,6.71,6.71,0,0,1-.89-.18.77.77,0,0,0-.85.33.75.75,0,0,0,.07.9,10.39,10.39,0,0,0,8.07,3.86h0c8.46-.08,16.64-9,16.72-9a.77.77,0,0,0,.2-.58A5.66,5.66,0,0,0,253.24,160.8Zm-59.47,26.35a1.61,1.61,0,0,0-1.45-.62,2.26,2.26,0,0,0-1.52.67,1.59,1.59,0,0,0-.26,1.51,5.42,5.42,0,0,0,.39,1.08,5.28,5.28,0,0,0,.63,1,2.33,2.33,0,0,0,1.64.95.93.93,0,0,0,1-.78,3.92,3.92,0,0,0,.07-.88c0-.34,0-.72,0-1.12A3.14,3.14,0,0,0,193.77,187.15Zm14.31-14.61a2.2,2.2,0,0,0-1.65-.16,1.57,1.57,0,0,0-1.19,1,3.13,3.13,0,0,0,.08,1.85c.1.38.22.75.33,1.07a4,4,0,0,0,.32.82.94.94,0,0,0,1.21.43,2.31,2.31,0,0,0,1.27-1.4,5.37,5.37,0,0,0,.3-1.13,5.51,5.51,0,0,0,0-1.14A1.6,1.6,0,0,0,208.08,172.54Zm-19.61,29.2a1.47,1.47,0,0,0-1.45-.86,2,2,0,0,0-1.52.9,2.88,2.88,0,0,0-.25,2.1,9.26,9.26,0,0,0,.39,1.48,9,9,0,0,0,.64,1.36c.49.8,1.08,1.3,1.64,1.32s.91-.38,1-1.06a7.59,7.59,0,0,0,.06-1.22c0-.48,0-1,0-1.55A5.59,5.59,0,0,0,188.47,201.74Zm-2.57-75.89a3.11,3.11,0,0,0,1.6.93c.56.12.94,0,1.07-.37a1.92,1.92,0,0,0,.11-.63c0-.24,0-.5,0-.78a1.78,1.78,0,0,0-.37-1.28,2.17,2.17,0,0,0-1.42-.59,2.86,2.86,0,0,0-1.56.28.78.78,0,0,0-.37,1,3.12,3.12,0,0,0,.32.75A3.81,3.81,0,0,0,185.9,125.85Zm53.31,8.79a25.9,25.9,0,0,1,6.09,3.8,32.41,32.41,0,0,1,5.39,6.12.77.77,0,0,0,.6.33h.06a3.31,3.31,0,0,0,2.11-.84c.91-.79,1.63-2.25,1.63-4.7v-.23a.78.78,0,0,0-.21-.52,36,36,0,0,0-3.64-3.31,37.06,37.06,0,0,0-7-4.37,17.83,17.83,0,0,0,.17-5.24,14.86,14.86,0,0,0-4.77-9.33,20.83,20.83,0,0,1,1.66,8.17,19.3,19.3,0,0,1-.57,4.92A19.58,19.58,0,0,0,232,128.2a14.16,14.16,0,0,0-2.31.41,21.9,21.9,0,0,0-6,2.78,19.9,19.9,0,0,0-4.88,5,.74.74,0,0,0,0,1,.76.76,0,0,0,1,0,5.25,5.25,0,0,1,.5-.36,26.1,26.1,0,0,1,7.95-3.35l.36-.07A20.46,20.46,0,0,1,239.21,134.64Zm-3.74,46.06a2.2,2.2,0,0,0-1.65-.16,1.59,1.59,0,0,0-1.19,1,3.06,3.06,0,0,0,.09,1.85c.1.38.21.75.32,1.07a4.65,4.65,0,0,0,.33.82.93.93,0,0,0,1.21.43,2.33,2.33,0,0,0,1.27-1.41,5.94,5.94,0,0,0,.29-1.12,4.94,4.94,0,0,0,.05-1.14A1.6,1.6,0,0,0,235.47,180.7Zm-14.59-15.65a2.36,2.36,0,0,0,1.24-1.47,5.74,5.74,0,0,0,.28-1.19,5.38,5.38,0,0,0,0-1.2,1.74,1.74,0,0,0-.74-1.45,2.12,2.12,0,0,0-1.65-.16,1.59,1.59,0,0,0-1.16,1.11,3.43,3.43,0,0,0,.12,1.95,11.33,11.33,0,0,0,.34,1.11,4.4,4.4,0,0,0,.34.86A.93.93,0,0,0,220.88,165.05ZM223,191.26a2.28,2.28,0,0,0-1.66-.17,1.6,1.6,0,0,0-1.18,1,3.16,3.16,0,0,0,.08,1.86c.1.38.21.74.32,1.07a4.65,4.65,0,0,0,.33.82.93.93,0,0,0,1.21.43,2.39,2.39,0,0,0,1.27-1.41,5.22,5.22,0,0,0,.3-1.13,5.44,5.44,0,0,0,0-1.13A1.6,1.6,0,0,0,223,191.26Z" transform="translate(-28 -25)"/></svg>