<svg xmlns="http://www.w3.org/2000/svg" viewBox="0 0 1000.18 617.95"><defs><style>.a{fill:#3ea69f;}.b,.c{fill:#fff;}.c{fill-rule:evenodd;}</style></defs><path class="a" d="M958.43,41.86C924.56,8.26,879.13.05,813.7.05H185.35C120.94.05,75,8.52,41.39,42.12,8,75.72-.18,120.61-.18,185.51v246c0,65.93,8,111.07,41.57,144.42C75.26,609.53,120.68,618,186.12,618H813.7c65.43,0,111.12-8.47,144.73-42.07S1000,497.44,1000,431.51V186.28C1000,120.61,992.05,75.21,958.43,41.86Z" transform="translate(0.18 -0.05)"/><path class="b" d="M325.16,436.14q.75,0,5.62,9l1.17.53h.53l2.29-1.7,3.34,4.51q2.68,0,5.09,3.4v1.7q-2,3.34-14.06,10.08a43.41,43.41,0,0,0-.58,6.21v5.62c.11.74.48,1.12,1.11,1.12h3.92q8.63,0,10.73,3.39v.53c0,.86-.94,1.43-2.82,1.7q-9.31-1.11-12.36-1.11v.58q.53,9.86.53,12.37a4.12,4.12,0,0,0-.53,1.7l26.43-7.33h2.22c.55,0,1.12.57,1.7,1.7q0,1.88-12.36,6.15-3.81,20.81-8.44,30.41v.53q7.68,3.63,10.67,7.33v1.11c0,.55-.57,1.11-1.7,1.7h-.53q-.88,0-11.84-4.51-5,11.83-10.66,11.83-4.51,0-4.51-5.1l1.11-.52h.59l2.81.52q5.63-7.2,5.62-10.07-3.92-2.29-16.87-6.8l-.59-1.11v-1.7q5.63-12.72,5.63-14.07h-.53q-12.08,5.63-15.76,5.63h-1.7c-.55,0-1.11-.55-1.7-1.64v-.59q0-1.75,22.5-10.13,2.82-9.56,3.4-9.55l-.59-1.12v-6.21c-.74,0-1.11-.17-1.11-.53q-7.68,6.75-10.14,6.74a1,1,0,0,1-1.11-1.11v-.59q11.25-14.64,11.25-19.68v-.59h-.59l-18,9c-1.49-.54-2.23-1.11-2.23-1.7V472.7q.76-1.57,16.29-11.84c2.62-2.18,3.92-3.49,3.92-3.92V443.46C322.34,439.17,323.28,436.72,325.16,436.14ZM303.24,448h1.12q8.67,11.25,12.95,11.25v.53a8,8,0,0,1-5,1.7q-5.34,0-10.14-10.14v-2.22C302.25,448.35,302.62,448,303.24,448ZM319,518.81q1.88,0,14.59,5.1,4.52-8.31,9-25.9H341.5q-18,4.64-18,9Q323.52,507.91,319,518.81Zm9-73.65v6.15a4.71,4.71,0,0,0,2.81-4.51l-2.22-1.64Zm2.28,11.78v.58q8.44-3.79,8.44-5.09c0-.51-1-1.25-2.81-2.23Q335.18,450.32,330.25,456.94Zm18.64,44.24a.54.54,0,0,1,.47-.24,10.68,10.68,0,0,0-.88-1.87L347,491l1.29.35q3,0,15.18,15.18,1-.18,11.25-21.92v-1.17h-.59q-8.73,5.63-16.87,5.63-7.86,0-7.85-9.55,1.69-16.29,3.92-16.29c1.88.58,2.81,1.7,2.81,3.34l-1.69,12.95c.78,2.34,1.71,3.65,2.81,3.92h1.11q6.15,0,23.09-7.85H382c.51,0,1.06.57,1.64,1.7q0,1.29-12.89,27.54-2.81,6.09-2.81,7.91l13.48,16.87v.53a1,1,0,0,1-1.12,1.11h-.58q-3.75,0-12.95-11.25h-1.11q-7.51,10.73-14.59,10.73-4.51,0-4.52-5.63l1.12-.58c0,.5,1,1.26,2.81,2.28h.59q7.79-7,9-13v-1.7q0-1.11-10.14-10.13a7,7,0,0,1-.64.87Z" transform="translate(0.18 -0.05)"/><path class="b" d="M427.11,452.66h.53c.78.2,1.54,1.13,2.28,2.81a67.84,67.84,0,0,0-.58,7.91v3.93a20.16,20.16,0,0,0,6.21-1.7l.52,1.11q-6.74,6.81-6.73,11.25v10.14l.58,1.11,5-2.22h.59c.74.11,1.11.49,1.11,1.11q-6.74,6.15-6.74,10.14v20.27c0,2,.18,5.14.53,9.55l-2.23,1.7h-.58q-9.37-3.35-17.41-12.42l1.12-.53q11.25,5,12.95,5V500h-1.17q-12.9,9.54-15.71,9.55h-1.17c-.59,0-1.33-.74-2.23-2.23q0-1.87,19.11-13.53l1.17-1.7V482q0-4.17-1.7-4.51a22,22,0,0,1-10.72,3.92h-2.23c-.51,0-1.45-.94-2.81-2.81V478q.75-1.94,15.76-6.15a6.28,6.28,0,0,0,1.7-3.92V455.47C424.3,455,425.23,454,427.11,452.66Zm29.77-7.85h1.17q3.57,0,5.62,3.93v3.39q0,.83-6.79,15.18h.58l2.23-1.11a3.77,3.77,0,0,1,.58,1.7Q459,471.65,447.91,478q0,3.28.53,18.58l1.17.58q7.26-3.17,7.27-6.21V487q.35-9.56,3.39-9.55h.59c1.09.35,1.64,1.46,1.64,3.34a93.78,93.78,0,0,1-1.11,9.61c.39,0,.58.17.58.52,4-2.61,7-3.92,9-3.92q0,.87-9.55,11.25v.58q0,9.56-1.12,9.55a3.85,3.85,0,0,1,.59,1.7l21.91-7.32h1.12c.54,0,1.11.57,1.7,1.7v1.64q0,2.28-11.84,17.46,0,3.39-10.66,11.84h-1.7l-2.23-1.7h-.59q-.4,0-3.34,3.34-3.63,0-7.32-20.22v-1.7q0-3.92,3.34-3.92,1.35,2.81,3.4,2.81c2.26-.59,3.4-1.9,3.4-3.93q0-.7-.59-5.62h.59a6.74,6.74,0,0,1-.59-3.4h-2.81q-8.08,0-9.55,16.87-3.17,13-5.1,15.77c-1.87-.63-2.81-1.57-2.81-2.82L441.7,505a5.59,5.59,0,0,1-3.34-2.82q4.09-4.1,5-6.74l-.59-2.81q-1.46-40-3.34-40-5.62,0-5.62-4.45Q433.85,446.1,456.88,444.81Zm-11.78,9,.53,2.82v8.43c0,4.1.56,6.16,1.69,6.16q8.26-6.33,12.37-18.58v-1.11l-1.12-1.7Q445.1,451.73,445.1,453.83Zm11.78,64.1-3.93-.58a56.27,56.27,0,0,0,2.81,14.06h1.12q7.08,0,20.85-20.21v-1.12h-.58Q458.4,517.94,456.88,517.93Z" transform="translate(0.18 -0.05)"/><path class="b" d="M531.7,454.36q2.4,0,3.4,6.15l-7.91,13.54v1.11l7.91-1.7h1.11q3.35,2,3.34,5,0,1.23-6.15,13.54h3.34c.78.11,1.17.49,1.17,1.11v5a21.51,21.51,0,0,1-15.76,6.8c-2.42,0-3.93-1.7-4.51-5.1q0-1.41,10.66-14.59v-.59h-1.11a35.23,35.23,0,0,0-4.51,1.12h-3.34c-4.5-.63-6.74-1.57-6.74-2.82v-.52q0-2.82,13.47-20.28Q529.13,454.37,531.7,454.36Zm9,50h.53V505q0,1.69-7.85,11.25-5.45,12.88-9.55,12.89h-2.29c-.62,0-1.36-1.12-2.22-3.34Q519.34,522.63,540.72,504.4Zm19.69-56.25h3.34q1.11.18,1.11,1.11-.52,7.33-.52,11.84h.52q.89,0,11.25-3.4,0,7.8-10.66,10.72c-1.88,2.43-2.81,4.48-2.81,6.16v10.13h1.11l9.55-3.92c.78.11,1.17.49,1.17,1.11q-5,9.56-8.43,10.14a69.38,69.38,0,0,1-11.25,4.51h-4.52q-3.39-1.47-3.39-4.51,10.13-3.46,10.13-5.1V472.88q-7,.58-7.32.58c-2.62-.5-3.93-1.25-3.93-2.22v-1.18q0-2.46,9.55-4.45,1.82,0,3.4-16.35Zm26.43,48.4a3.92,3.92,0,0,1,1.11,2.22q0,4.58-15.18,23.09c.51,0,1.45.94,2.82,2.81v2.82q0,2.4-17.47,6.15-4.62,0-11.77-31.47c.54-1.52,1.09-2.28,1.64-2.28h1.17c1.45,0,2.75,2.81,3.93,8.44Q574.89,499.36,586.84,496.55Zm-32.05,18.51q2.63,12.42,4.45,12.43h.58q17.46-15.65,17.47-20.28v-.58h-.59Q563,512.26,555.31,514Z" transform="translate(0.18 -0.05)"/><path class="b" d="M659.08,447.33h2.29c.5,0,1,.57,1.64,1.7v.53q-3.93,10-3.93,15.23v6.74q10-.4,28.13-15.76l2.28-.59q3,0,5,11.25v1.17q-4.34,59.07-8.44,59.07h-.58a31,31,0,0,1-18-13.54V512c.12-.74.49-1.12,1.11-1.12a57.82,57.82,0,0,0,13,7.33q2.82-.36,2.81-12.42a297.88,297.88,0,0,0,5.1-42.19c-.39,0-.58-.18-.58-.53l-17.46,12.36q-2.88,2.12-10.67,3.4V503h1.11q1.88,0,11.84-11.77v-.59q0-1.69-2.28-6.15a4.25,4.25,0,0,0,.58-1.7h.59q4.33,0,10.66,10.66v2.81a1,1,0,0,1-1.11,1.12h-.59l-3.34-2.81h-.58q-8.32,11.71-13.48,16.87c-3.79,1.88-6.06,2.81-6.8,2.81q-1.82,0-3.92-3.92l.58-5.63q-10.54-5.62-12.95-5.62-1.4,34.34-2.81,34.33l-1.7,1.12q-4.51,0-4.51-5.63,1.17-21.61,2.81-36a4.48,4.48,0,0,1-.52-1.7h-1.12q-1.23.28-10.13,20.21-2.76,3.41-3.4,3.4h-.53c-.55,0-1.11-.57-1.7-1.7v-.53Q628,484,632.66,477.68h-1.12l-10.72,1.17q-3.93-1.17-3.93-4.51,0-1.87,16.88-4.51l3.93-15.76H640c.51,0,1.25,1,2.23,2.81v1.7c0,.43-.38,2.5-1.12,6.21v2.81h.59l7.85-4h1.7v4L640.51,476v7.85q0,10,14.06,17.46a17.37,17.37,0,0,0,1.17-6.79,124.19,124.19,0,0,0-2.81-24.14Q656.1,447.33,659.08,447.33Z" transform="translate(0.18 -0.05)"/><path class="c" d="M399.28,176.91c2.39-1.87,6.78.5,10.55-1.52s7.54-2.52,9.05-1.25,3.51,3,10,2.77,11.8,2.26,14.56,1.51,2.77-2,7.79-1,15.08,4.28,16.59,5.29,6.27,3.78,3.26,7.56-4.53,5.28-5,9.32.76,9.06-.75,8.06-7.79-8.06-6.78-6-.51,7.55,5,9.83,7,4.78,13.07,5.28,13.73,5.55,23.06,3.53,24.91-10.08,36.46-9.58,15.32,4.54,21.35-.75,18.84-21.66,18.84-28.21-3.77-14.36-7-16.63S553.75,151.47,556,148.69s8.79-1.76,15.57,1.51,26.87,11.09,20.85,30-19.35,33-18.09,38.3,9,14.6,9.8,19.38,1.76,20.41,3.51,27.71,0,13.35,4,18.64,6.78,12.85,6.78,15.61,4.28,12.85,4.78,16.63a21.81,21.81,0,0,1-2,11.59c-1.51,2.76-7.79,3.27-10.56,3.53s-6.27-3.53-4.26-5,3-2.28,3.27-4.78-.51-7.81-2.27-12.35-2-9.76-7.78-13.83-8.29-9.6-9-7.08-.5,6.8-1,10.59,1,7.3,1,10.57-.5,7.3-3.52,7.56-10.8,2.26-12.55-.26-3-3.53-.51-5.53,5-5.54,4-9.82-1-8.82-5-12.1a104.92,104.92,0,0,1-11.81-11.58c-1.25-1.77-2-1-6.53.5s-17.83,4-24.36,6-13.32,5-16.08,5-3.26.5-3.26,2.26-2,22.43-2.51,24.95,0,12.11.75,14.87,2.76,9.55,2,12.84-7.79,5-11,5.28-9.29,1.52-9.8-2.52-.25-5.28,1.26-7.3,1.51-8.07,1.25-14.86.51-11.6-.5-17.39,1.26-11.76-3.52-12.06-11.55,1.05-14.31,0-5,3.25-5.28,7.78.25,16.63.25,20.9-.75,11.6-1,14.12-3.52,6.8-6.53,7-12.81.51-13.06-1.5-3.52-5-1.51-7,4-1.52,4.27-5.29,0-15.63,0-20.91-1-18.14-1.26-21.67-4.26-11.57-4.26-20.64a152.46,152.46,0,0,0-1.77-20.9c-.5-4,.51-10.59-2-11.34s-8.54-1-11.56-3.28a12.08,12.08,0,0,1-5-10.57c.26-4.78,3.27-8.82,3.52-10.83s-1.26-6.8-1.76-8.57,1.76-9.83.25-10.83-4,.5-4.77,2.52-4.27,8.06-4.78,6.55,1.51-2.77,1.26-5.29S398,192,397,188.24,397,178.66,399.28,176.91Z" transform="translate(0.18 -0.05)"/></svg>