<svg xmlns="http://www.w3.org/2000/svg" viewBox="0 0 512 425.22"><path d="M403.51,204.6c12.19-23.72,13.5-45.9,3.55-63.14-10.32-17.86-31.61-28-59.95-28.62-20.81-.42-44.44,4.31-68.13,13.53,8.17-27.85,5.53-50-7.87-63.37-16.12-16.11-44.9-16.66-81.06-1.56-33.72,14.09-70.76,40.33-104.33,73.89-50,50-83.19,108-84.77,147.93A75.43,75.43,0,0,0,0,295.05c0,35.79,25.09,69,70.65,93.55,43.86,23.61,102,36.62,163.65,36.62s119.8-13,163.66-36.62c45.56-24.53,70.65-57.76,70.65-93.55C468.61,260.68,445.58,228.79,403.51,204.6Zm-80.8,145.76c-28.25,22.29-67,36.59-109.07,40.24-7,.61-14,.92-20.93.92-34.48,0-67.06-7.52-93.45-21.75C66.39,352,46.88,326,44.31,296.43s12.16-58.58,41.48-81.71c28.26-22.3,67-36.59,109.07-40.25s82.71,3.74,114.39,20.83c32.86,17.73,52.37,43.78,54.94,73.34S352,327.23,322.71,350.36Z"/><path d="M373.15,73.76a13,13,0,0,0,0,26,47.78,47.78,0,0,1,47.73,47.73,13,13,0,0,0,26,0A73.86,73.86,0,0,0,373.15,73.76Z"/><path d="M364.48,0c-3.27,0-6.57.11-9.82.32A17.36,17.36,0,0,0,356.94,35c2.49-.16,5-.25,7.54-.25A112.92,112.92,0,0,1,475,170.11a17.36,17.36,0,1,0,34,6.9A148.31,148.31,0,0,0,512,147.52C512,66.18,445.82,0,364.48,0Z"/><path d="M286.65,269.14C277.14,229.6,231.1,206.63,184,218s-77.66,52.71-68.15,92.25c4.68,19.48,18.15,35.49,37.94,45.11a92.37,92.37,0,0,0,40.35,9,104.2,104.2,0,0,0,24.34-2.92C265.58,350.07,296.16,308.69,286.65,269.14ZM177.9,338.44a30.38,30.38,0,1,1,30.37-30.37A30.37,30.37,0,0,1,177.9,338.44Zm56.4-43.39a17.36,17.36,0,1,1,17.36-17.36A17.35,17.35,0,0,1,234.3,295.05Z"/></svg>